{
	"asset":{
		"generator":"Khronos glTF Blender I/O v4.3.47",
		"version":"2.0"
	},
	"scene":0,
	"scenes":[
		{
			"name":"Scene",
			"nodes":[
				0,
				1,
				2,
				3
			]
		}
	],
	"nodes":[
		{
			"mesh":0,
			"name":"back"
		},
		{
			"mesh":1,
			"name":"rings"
		},
		{
			"mesh":2,
			"name":"triangles"
		},
		{
			"mesh":3,
			"name":"end",
			"translation":[
				-0.30000001192092896,
				0.25,
				1.600000023841858
			]
		}
	],
	"meshes":[
		{
			"name":"Circle.021",
			"primitives":[
				{
					"attributes":{
						"POSITION":0,
						"NORMAL":1,
						"TEXCOORD_0":2
					},
					"indices":3
				}
			]
		},
		{
			"name":"Circle.022",
			"primitives":[
				{
					"attributes":{
						"POSITION":4,
						"NORMAL":5,
						"TEXCOORD_0":6
					},
					"indices":7
				}
			]
		},
		{
			"name":"Plane.024",
			"primitives":[
				{
					"attributes":{
						"POSITION":8,
						"NORMAL":9,
						"TEXCOORD_0":10
					},
					"indices":11
				}
			]
		},
		{
			"name":"Circle.023",
			"primitives":[
				{
					"attributes":{
						"POSITION":12,
						"NORMAL":13,
						"TEXCOORD_0":14
					},
					"indices":15
				}
			]
		}
	],
	"accessors":[
		{
			"bufferView":0,
			"componentType":5126,
			"count":259,
			"max":[
				0.5310310125350952,
				1.1454057693481445,
				0.06000041961669922
			],
			"min":[
				-0.5310310125350952,
				0.7925254106521606,
				-0.5310307741165161
			],
			"type":"VEC3"
		},
		{
			"bufferView":1,
			"componentType":5126,
			"count":259,
			"type":"VEC3"
		},
		{
			"bufferView":2,
			"componentType":5126,
			"count":259,
			"type":"VEC2"
		},
		{
			"bufferView":3,
			"componentType":5123,
			"count":1104,
			"type":"SCALAR"
		},
		{
			"bufferView":4,
			"componentType":5126,
			"count":480,
			"max":[
				0.5315840840339661,
				1.1699025630950928,
				-0.09999954700469971
			],
			"min":[
				-0.5315840840339661,
				0.7663393020629883,
				-0.5002139806747437
			],
			"type":"VEC3"
		},
		{
			"bufferView":5,
			"componentType":5126,
			"count":480,
			"type":"VEC3"
		},
		{
			"bufferView":6,
			"componentType":5126,
			"count":480,
			"type":"VEC2"
		},
		{
			"bufferView":7,
			"componentType":5123,
			"count":1440,
			"type":"SCALAR"
		},
		{
			"bufferView":8,
			"componentType":5126,
			"count":96,
			"max":[
				0.553631603717804,
				0.9051639437675476,
				-0.08030962944030762
			],
			"min":[
				-0.553631603717804,
				0.8617457747459412,
				-0.5199683904647827
			],
			"type":"VEC3"
		},
		{
			"bufferView":9,
			"componentType":5126,
			"count":96,
			"type":"VEC3"
		},
		{
			"bufferView":10,
			"componentType":5126,
			"count":96,
			"type":"VEC2"
		},
		{
			"bufferView":11,
			"componentType":5123,
			"count":180,
			"type":"SCALAR"
		},
		{
			"bufferView":12,
			"componentType":5126,
			"count":158,
			"max":[
				0.18063604831695557,
				0.8567749261856079,
				-1.4549263715744019
			],
			"min":[
				-0.2728961408138275,
				0.5001273155212402,
				-1.658622145652771
			],
			"type":"VEC3"
		},
		{
			"bufferView":13,
			"componentType":5126,
			"count":158,
			"type":"VEC3"
		},
		{
			"bufferView":14,
			"componentType":5126,
			"count":158,
			"type":"VEC2"
		},
		{
			"bufferView":15,
			"componentType":5123,
			"count":792,
			"type":"SCALAR"
		}
	],
	"bufferViews":[
		{
			"buffer":0,
			"byteLength":3108,
			"byteOffset":0,
			"target":34962
		},
		{
			"buffer":0,
			"byteLength":3108,
			"byteOffset":3108,
			"target":34962
		},
		{
			"buffer":0,
			"byteLength":2072,
			"byteOffset":6216,
			"target":34962
		},
		{
			"buffer":0,
			"byteLength":2208,
			"byteOffset":8288,
			"target":34963
		},
		{
			"buffer":0,
			"byteLength":5760,
			"byteOffset":10496,
			"target":34962
		},
		{
			"buffer":0,
			"byteLength":5760,
			"byteOffset":16256,
			"target":34962
		},
		{
			"buffer":0,
			"byteLength":3840,
			"byteOffset":22016,
			"target":34962
		},
		{
			"buffer":0,
			"byteLength":2880,
			"byteOffset":25856,
			"target":34963
		},
		{
			"buffer":0,
			"byteLength":1152,
			"byteOffset":28736,
			"target":34962
		},
		{
			"buffer":0,
			"byteLength":1152,
			"byteOffset":29888,
			"target":34962
		},
		{
			"buffer":0,
			"byteLength":768,
			"byteOffset":31040,
			"target":34962
		},
		{
			"buffer":0,
			"byteLength":360,
			"byteOffset":31808,
			"target":34963
		},
		{
			"buffer":0,
			"byteLength":1896,
			"byteOffset":32168,
			"target":34962
		},
		{
			"buffer":0,
			"byteLength":1896,
			"byteOffset":34064,
			"target":34962
		},
		{
			"buffer":0,
			"byteLength":1264,
			"byteOffset":35960,
			"target":34962
		},
		{
			"buffer":0,
			"byteLength":1584,
			"byteOffset":37224,
			"target":34963
		}
	],
	"buffers":[
		{
			"byteLength":38808,
			"uri":"back_blower.bin"
		}
	]
}
