{
	"asset":{
		"generator":"Khronos glTF Blender I/O v4.3.47",
		"version":"2.0"
	},
	"scene":0,
	"scenes":[
		{
			"name":"Scene",
			"nodes":[
				9
			]
		}
	],
	"nodes":[
		{
			"name":"Reticule",
			"rotation":[
				0,
				7.105427357601002e-14,
				0,
				1
			],
			"translation":[
				-0.13055092096328735,
				1.1952805519104004,
				-0.05999989062547684
			]
		},
		{
			"children":[
				0
			],
			"name":"Leaf",
			"rotation":[
				0,
				9.5367431640625e-07,
				0,
				1
			],
			"translation":[
				-1.3190174286137335e-08,
				0.1715366542339325,
				-2.5121380531345494e-08
			]
		},
		{
			"children":[
				1
			],
			"name":"Root",
			"rotation":[
				0.7071067690849304,
				-8.120283609969192e-07,
				-8.120283609969192e-07,
				0.7071067690849304
			],
			"translation":[
				0.45211467146873474,
				0.940000057220459,
				0.07226386666297913
			]
		},
		{
			"mesh":0,
			"name":"arm_end",
			"skin":0
		},
		{
			"mesh":1,
			"name":"flexible_part",
			"skin":0
		},
		{
			"mesh":2,
			"name":"reticule",
			"skin":0
		},
		{
			"mesh":3,
			"name":"reticule_soap",
			"skin":0
		},
		{
			"mesh":4,
			"name":"reticule_support",
			"skin":0
		},
		{
			"mesh":5,
			"name":"tube",
			"skin":0
		},
		{
			"children":[
				3,
				4,
				5,
				6,
				7,
				8,
				2
			],
			"name":"Armature"
		}
	],
	"meshes":[
		{
			"name":"Circle.031",
			"primitives":[
				{
					"attributes":{
						"POSITION":0,
						"NORMAL":1,
						"TEXCOORD_0":2,
						"JOINTS_0":3,
						"WEIGHTS_0":4
					},
					"indices":5
				}
			]
		},
		{
			"name":"Circle.029",
			"primitives":[
				{
					"attributes":{
						"POSITION":7,
						"NORMAL":8,
						"TEXCOORD_0":9,
						"JOINTS_0":10,
						"WEIGHTS_0":11
					},
					"indices":12
				}
			]
		},
		{
			"name":"Circle.030",
			"primitives":[
				{
					"attributes":{
						"POSITION":13,
						"NORMAL":14,
						"TEXCOORD_0":15,
						"JOINTS_0":16,
						"WEIGHTS_0":17
					},
					"indices":18
				}
			]
		},
		{
			"name":"Circle.033",
			"primitives":[
				{
					"attributes":{
						"POSITION":19,
						"NORMAL":20,
						"TEXCOORD_0":21,
						"JOINTS_0":22,
						"WEIGHTS_0":23
					},
					"indices":24
				}
			]
		},
		{
			"name":"Circle.032",
			"primitives":[
				{
					"attributes":{
						"POSITION":25,
						"NORMAL":26,
						"TEXCOORD_0":27,
						"JOINTS_0":28,
						"WEIGHTS_0":29
					},
					"indices":30
				}
			]
		},
		{
			"name":"Circle.028",
			"primitives":[
				{
					"attributes":{
						"POSITION":31,
						"NORMAL":32,
						"TEXCOORD_0":33,
						"JOINTS_0":34,
						"WEIGHTS_0":35
					},
					"indices":36
				}
			]
		}
	],
	"skins":[
		{
			"inverseBindMatrices":6,
			"joints":[
				2,
				1,
				0
			],
			"name":"Armature"
		}
	],
	"accessors":[
		{
			"bufferView":0,
			"componentType":5126,
			"count":348,
			"max":[
				0.5480051040649414,
				1.0989198684692383,
				1.625
			],
			"min":[
				0.3519948720932007,
				0.7610802054405212,
				0.43000006675720215
			],
			"type":"VEC3"
		},
		{
			"bufferView":1,
			"componentType":5126,
			"count":348,
			"type":"VEC3"
		},
		{
			"bufferView":2,
			"componentType":5126,
			"count":348,
			"type":"VEC2"
		},
		{
			"bufferView":3,
			"componentType":5121,
			"count":348,
			"type":"VEC4"
		},
		{
			"bufferView":4,
			"componentType":5126,
			"count":348,
			"type":"VEC4"
		},
		{
			"bufferView":5,
			"componentType":5123,
			"count":1248,
			"type":"SCALAR"
		},
		{
			"bufferView":6,
			"componentType":5126,
			"count":3,
			"type":"MAT4"
		},
		{
			"bufferView":7,
			"componentType":5126,
			"count":310,
			"max":[
				0.5429854989051819,
				1.093604564666748,
				0.43000006675720215
			],
			"min":[
				0.3570144772529602,
				0.7663954496383667,
				0.06000041961669922
			],
			"type":"VEC3"
		},
		{
			"bufferView":8,
			"componentType":5126,
			"count":310,
			"type":"VEC3"
		},
		{
			"bufferView":9,
			"componentType":5126,
			"count":310,
			"type":"VEC2"
		},
		{
			"bufferView":10,
			"componentType":5121,
			"count":310,
			"type":"VEC4"
		},
		{
			"bufferView":11,
			"componentType":5126,
			"count":310,
			"type":"VEC4"
		},
		{
			"bufferView":12,
			"componentType":5123,
			"count":1800,
			"type":"SCALAR"
		},
		{
			"bufferView":13,
			"componentType":5126,
			"count":124,
			"max":[
				0.556800901889801,
				1.10680091381073,
				1.7458879947662354
			],
			"min":[
				0.26864713430404663,
				0.89319908618927,
				1.439081072807312
			],
			"type":"VEC3"
		},
		{
			"bufferView":14,
			"componentType":5126,
			"count":124,
			"type":"VEC3"
		},
		{
			"bufferView":15,
			"componentType":5126,
			"count":124,
			"type":"VEC2"
		},
		{
			"bufferView":16,
			"componentType":5121,
			"count":124,
			"type":"VEC4"
		},
		{
			"bufferView":17,
			"componentType":5126,
			"count":124,
			"type":"VEC4"
		},
		{
			"bufferView":18,
			"componentType":5123,
			"count":372,
			"type":"SCALAR"
		},
		{
			"bufferView":19,
			"componentType":5126,
			"count":16,
			"max":[
				0.5450818538665771,
				1.0936875343322754,
				1.6996564865112305
			],
			"min":[
				0.35770678520202637,
				0.9063124656677246,
				1.6889052391052246
			],
			"type":"VEC3"
		},
		{
			"bufferView":20,
			"componentType":5126,
			"count":16,
			"type":"VEC3"
		},
		{
			"bufferView":21,
			"componentType":5126,
			"count":16,
			"type":"VEC2"
		},
		{
			"bufferView":22,
			"componentType":5121,
			"count":16,
			"type":"VEC4"
		},
		{
			"bufferView":23,
			"componentType":5126,
			"count":16,
			"type":"VEC4"
		},
		{
			"bufferView":24,
			"componentType":5123,
			"count":36,
			"type":"SCALAR"
		},
		{
			"bufferView":25,
			"componentType":5126,
			"count":28,
			"max":[
				0.4299861192703247,
				1.033033847808838,
				1.5045636892318726
			],
			"min":[
				0.2842671275138855,
				0.9669661521911621,
				1.4059723615646362
			],
			"type":"VEC3"
		},
		{
			"bufferView":26,
			"componentType":5126,
			"count":28,
			"type":"VEC3"
		},
		{
			"bufferView":27,
			"componentType":5126,
			"count":28,
			"type":"VEC2"
		},
		{
			"bufferView":28,
			"componentType":5121,
			"count":28,
			"type":"VEC4"
		},
		{
			"bufferView":29,
			"componentType":5126,
			"count":28,
			"type":"VEC4"
		},
		{
			"bufferView":30,
			"componentType":5123,
			"count":66,
			"type":"SCALAR"
		},
		{
			"bufferView":31,
			"componentType":5126,
			"count":354,
			"max":[
				0.5974592566490173,
				1.5393394231796265,
				1.4750690460205078
			],
			"min":[
				-0.018219470977783203,
				0.7288904786109924,
				-0.6992043852806091
			],
			"type":"VEC3"
		},
		{
			"bufferView":32,
			"componentType":5126,
			"count":354,
			"type":"VEC3"
		},
		{
			"bufferView":33,
			"componentType":5126,
			"count":354,
			"type":"VEC2"
		},
		{
			"bufferView":34,
			"componentType":5121,
			"count":354,
			"type":"VEC4"
		},
		{
			"bufferView":35,
			"componentType":5126,
			"count":354,
			"type":"VEC4"
		},
		{
			"bufferView":36,
			"componentType":5123,
			"count":2088,
			"type":"SCALAR"
		}
	],
	"bufferViews":[
		{
			"buffer":0,
			"byteLength":4176,
			"byteOffset":0,
			"target":34962
		},
		{
			"buffer":0,
			"byteLength":4176,
			"byteOffset":4176,
			"target":34962
		},
		{
			"buffer":0,
			"byteLength":2784,
			"byteOffset":8352,
			"target":34962
		},
		{
			"buffer":0,
			"byteLength":1392,
			"byteOffset":11136,
			"target":34962
		},
		{
			"buffer":0,
			"byteLength":5568,
			"byteOffset":12528,
			"target":34962
		},
		{
			"buffer":0,
			"byteLength":2496,
			"byteOffset":18096,
			"target":34963
		},
		{
			"buffer":0,
			"byteLength":192,
			"byteOffset":20592
		},
		{
			"buffer":0,
			"byteLength":3720,
			"byteOffset":20784,
			"target":34962
		},
		{
			"buffer":0,
			"byteLength":3720,
			"byteOffset":24504,
			"target":34962
		},
		{
			"buffer":0,
			"byteLength":2480,
			"byteOffset":28224,
			"target":34962
		},
		{
			"buffer":0,
			"byteLength":1240,
			"byteOffset":30704,
			"target":34962
		},
		{
			"buffer":0,
			"byteLength":4960,
			"byteOffset":31944,
			"target":34962
		},
		{
			"buffer":0,
			"byteLength":3600,
			"byteOffset":36904,
			"target":34963
		},
		{
			"buffer":0,
			"byteLength":1488,
			"byteOffset":40504,
			"target":34962
		},
		{
			"buffer":0,
			"byteLength":1488,
			"byteOffset":41992,
			"target":34962
		},
		{
			"buffer":0,
			"byteLength":992,
			"byteOffset":43480,
			"target":34962
		},
		{
			"buffer":0,
			"byteLength":496,
			"byteOffset":44472,
			"target":34962
		},
		{
			"buffer":0,
			"byteLength":1984,
			"byteOffset":44968,
			"target":34962
		},
		{
			"buffer":0,
			"byteLength":744,
			"byteOffset":46952,
			"target":34963
		},
		{
			"buffer":0,
			"byteLength":192,
			"byteOffset":47696,
			"target":34962
		},
		{
			"buffer":0,
			"byteLength":192,
			"byteOffset":47888,
			"target":34962
		},
		{
			"buffer":0,
			"byteLength":128,
			"byteOffset":48080,
			"target":34962
		},
		{
			"buffer":0,
			"byteLength":64,
			"byteOffset":48208,
			"target":34962
		},
		{
			"buffer":0,
			"byteLength":256,
			"byteOffset":48272,
			"target":34962
		},
		{
			"buffer":0,
			"byteLength":72,
			"byteOffset":48528,
			"target":34963
		},
		{
			"buffer":0,
			"byteLength":336,
			"byteOffset":48600,
			"target":34962
		},
		{
			"buffer":0,
			"byteLength":336,
			"byteOffset":48936,
			"target":34962
		},
		{
			"buffer":0,
			"byteLength":224,
			"byteOffset":49272,
			"target":34962
		},
		{
			"buffer":0,
			"byteLength":112,
			"byteOffset":49496,
			"target":34962
		},
		{
			"buffer":0,
			"byteLength":448,
			"byteOffset":49608,
			"target":34962
		},
		{
			"buffer":0,
			"byteLength":132,
			"byteOffset":50056,
			"target":34963
		},
		{
			"buffer":0,
			"byteLength":4248,
			"byteOffset":50188,
			"target":34962
		},
		{
			"buffer":0,
			"byteLength":4248,
			"byteOffset":54436,
			"target":34962
		},
		{
			"buffer":0,
			"byteLength":2832,
			"byteOffset":58684,
			"target":34962
		},
		{
			"buffer":0,
			"byteLength":1416,
			"byteOffset":61516,
			"target":34962
		},
		{
			"buffer":0,
			"byteLength":5664,
			"byteOffset":62932,
			"target":34962
		},
		{
			"buffer":0,
			"byteLength":4176,
			"byteOffset":68596,
			"target":34963
		}
	],
	"buffers":[
		{
			"byteLength":72772,
			"uri":"blower_arm.bin"
		}
	]
}
