{
	"asset":{
		"generator":"Khronos glTF Blender I/O v4.3.47",
		"version":"2.0"
	},
	"scene":0,
	"scenes":[
		{
			"name":"Scene",
			"nodes":[
				0
			]
		}
	],
	"nodes":[
		{
			"mesh":0,
			"name":"body",
			"translation":[
				0,
				-0.10000000149011612,
				0
			]
		}
	],
	"meshes":[
		{
			"name":"Plane.007",
			"primitives":[
				{
					"attributes":{
						"POSITION":0,
						"NORMAL":1,
						"TEXCOORD_0":2
					},
					"indices":3
				}
			]
		}
	],
	"accessors":[
		{
			"bufferView":0,
			"componentType":5126,
			"count":1551,
			"max":[
				0.326225608587265,
				0.519244372844696,
				0.28047722578048706
			],
			"min":[
				-0.326225608587265,
				-0.38754308223724365,
				-0.34820297360420227
			],
			"type":"VEC3"
		},
		{
			"bufferView":1,
			"componentType":5126,
			"count":1551,
			"type":"VEC3"
		},
		{
			"bufferView":2,
			"componentType":5126,
			"count":1551,
			"type":"VEC2"
		},
		{
			"bufferView":3,
			"componentType":5123,
			"count":4428,
			"type":"SCALAR"
		}
	],
	"bufferViews":[
		{
			"buffer":0,
			"byteLength":18612,
			"byteOffset":0,
			"target":34962
		},
		{
			"buffer":0,
			"byteLength":18612,
			"byteOffset":18612,
			"target":34962
		},
		{
			"buffer":0,
			"byteLength":12408,
			"byteOffset":37224,
			"target":34962
		},
		{
			"buffer":0,
			"byteLength":8856,
			"byteOffset":49632,
			"target":34963
		}
	],
	"buffers":[
		{
			"byteLength":58488,
			"uri":"body.bin"
		}
	]
}
