{
	"asset":{
		"generator":"Khronos glTF Blender I/O v4.3.47",
		"version":"2.0"
	},
	"scene":0,
	"scenes":[
		{
			"name":"Scene",
			"nodes":[
				0,
				1
			]
		}
	],
	"nodes":[
		{
			"mesh":0,
			"name":"headset_in"
		},
		{
			"mesh":1,
			"name":"headset_out"
		}
	],
	"meshes":[
		{
			"name":"Circle.019",
			"primitives":[
				{
					"attributes":{
						"POSITION":0,
						"NORMAL":1,
						"TEXCOORD_0":2
					},
					"indices":3
				}
			]
		},
		{
			"name":"Circle.020",
			"primitives":[
				{
					"attributes":{
						"POSITION":4,
						"NORMAL":5,
						"TEXCOORD_0":6
					},
					"indices":7
				}
			]
		}
	],
	"accessors":[
		{
			"bufferView":0,
			"componentType":5126,
			"count":64,
			"max":[
				0.03600002080202103,
				0.1310645192861557,
				0.01500004529953003
			],
			"min":[
				-5.587935447692871e-09,
				-0.11193551123142242,
				-0.16499990224838257
			],
			"type":"VEC3"
		},
		{
			"bufferView":1,
			"componentType":5126,
			"count":64,
			"type":"VEC3"
		},
		{
			"bufferView":2,
			"componentType":5126,
			"count":64,
			"type":"VEC2"
		},
		{
			"bufferView":3,
			"componentType":5123,
			"count":330,
			"type":"SCALAR"
		},
		{
			"bufferView":4,
			"componentType":5126,
			"count":64,
			"max":[
				0.10387059301137924,
				0.1310645192861557,
				0.01500004529953003
			],
			"min":[
				0.03599999099969864,
				-0.11193551123142242,
				-0.16499990224838257
			],
			"type":"VEC3"
		},
		{
			"bufferView":5,
			"componentType":5126,
			"count":64,
			"type":"VEC3"
		},
		{
			"bufferView":6,
			"componentType":5126,
			"count":64,
			"type":"VEC2"
		},
		{
			"bufferView":7,
			"componentType":5123,
			"count":330,
			"type":"SCALAR"
		}
	],
	"bufferViews":[
		{
			"buffer":0,
			"byteLength":768,
			"byteOffset":0,
			"target":34962
		},
		{
			"buffer":0,
			"byteLength":768,
			"byteOffset":768,
			"target":34962
		},
		{
			"buffer":0,
			"byteLength":512,
			"byteOffset":1536,
			"target":34962
		},
		{
			"buffer":0,
			"byteLength":660,
			"byteOffset":2048,
			"target":34963
		},
		{
			"buffer":0,
			"byteLength":768,
			"byteOffset":2708,
			"target":34962
		},
		{
			"buffer":0,
			"byteLength":768,
			"byteOffset":3476,
			"target":34962
		},
		{
			"buffer":0,
			"byteLength":512,
			"byteOffset":4244,
			"target":34962
		},
		{
			"buffer":0,
			"byteLength":660,
			"byteOffset":4756,
			"target":34963
		}
	],
	"buffers":[
		{
			"byteLength":5416,
			"uri":"headset.bin"
		}
	]
}
