{
	"asset":{
		"generator":"Khronos glTF Blender I/O v4.3.47",
		"version":"2.0"
	},
	"scene":0,
	"scenes":[
		{
			"name":"Scene",
			"nodes":[
				0,
				1,
				2,
				3,
				4,
				5
			]
		}
	],
	"nodes":[
		{
			"mesh":0,
			"name":"head_front"
		},
		{
			"mesh":1,
			"name":"head"
		},
		{
			"mesh":2,
			"name":"head_set_top"
		},
		{
			"mesh":3,
			"name":"antenna_top"
		},
		{
			"mesh":4,
			"name":"antenna"
		},
		{
			"mesh":5,
			"name":"eyes"
		}
	],
	"meshes":[
		{
			"name":"Plane.018",
			"primitives":[
				{
					"attributes":{
						"POSITION":0,
						"NORMAL":1,
						"TEXCOORD_0":2
					},
					"indices":3
				}
			]
		},
		{
			"name":"Plane.019",
			"primitives":[
				{
					"attributes":{
						"POSITION":4,
						"NORMAL":5,
						"TEXCOORD_0":6
					},
					"indices":7
				}
			]
		},
		{
			"name":"Plane.020",
			"primitives":[
				{
					"attributes":{
						"POSITION":8,
						"NORMAL":9,
						"TEXCOORD_0":10
					},
					"indices":11
				}
			]
		},
		{
			"name":"Sphere.001",
			"primitives":[
				{
					"attributes":{
						"POSITION":12,
						"NORMAL":13,
						"TEXCOORD_0":14
					},
					"indices":15
				}
			]
		},
		{
			"name":"Plane.021",
			"primitives":[
				{
					"attributes":{
						"POSITION":16,
						"NORMAL":17,
						"TEXCOORD_0":18
					},
					"indices":19
				}
			]
		},
		{
			"name":"Plane.025",
			"primitives":[
				{
					"attributes":{
						"POSITION":20,
						"NORMAL":21,
						"TEXCOORD_0":22
					},
					"indices":23
				}
			]
		}
	],
	"accessors":[
		{
			"bufferView":0,
			"componentType":5126,
			"count":103,
			"max":[
				0.17999997735023499,
				1.4999998807907104,
				0.265449196100235
			],
			"min":[
				-0.17999997735023499,
				1.3500888347625732,
				0.19999995827674866
			],
			"type":"VEC3"
		},
		{
			"bufferView":1,
			"componentType":5126,
			"count":103,
			"type":"VEC3"
		},
		{
			"bufferView":2,
			"componentType":5126,
			"count":103,
			"type":"VEC2"
		},
		{
			"bufferView":3,
			"componentType":5123,
			"count":504,
			"type":"SCALAR"
		},
		{
			"bufferView":4,
			"componentType":5126,
			"count":598,
			"max":[
				0.2317480593919754,
				1.5089951753616333,
				0.19999995827674866
			],
			"min":[
				-0.2317480593919754,
				1.2999999523162842,
				-0.31368112564086914
			],
			"type":"VEC3"
		},
		{
			"bufferView":5,
			"componentType":5126,
			"count":598,
			"type":"VEC3"
		},
		{
			"bufferView":6,
			"componentType":5126,
			"count":598,
			"type":"VEC2"
		},
		{
			"bufferView":7,
			"componentType":5123,
			"count":1926,
			"type":"SCALAR"
		},
		{
			"bufferView":8,
			"componentType":5126,
			"count":80,
			"max":[
				0.20999997854232788,
				1.725000023841858,
				-0.02950003743171692
			],
			"min":[
				-0.20999997854232788,
				1.5750000476837158,
				-0.12049999833106995
			],
			"type":"VEC3"
		},
		{
			"bufferView":9,
			"componentType":5126,
			"count":80,
			"type":"VEC3"
		},
		{
			"bufferView":10,
			"componentType":5126,
			"count":80,
			"type":"VEC2"
		},
		{
			"bufferView":11,
			"componentType":5123,
			"count":168,
			"type":"SCALAR"
		},
		{
			"bufferView":12,
			"componentType":5126,
			"count":33,
			"max":[
				0.043301284313201904,
				1.86899995803833,
				-0.030999988317489624
			],
			"min":[
				-0.043301284313201904,
				1.7810001373291016,
				-0.11900001764297485
			],
			"type":"VEC3"
		},
		{
			"bufferView":13,
			"componentType":5126,
			"count":33,
			"type":"VEC3"
		},
		{
			"bufferView":14,
			"componentType":5126,
			"count":33,
			"type":"VEC2"
		},
		{
			"bufferView":15,
			"componentType":5123,
			"count":108,
			"type":"SCALAR"
		},
		{
			"bufferView":16,
			"componentType":5126,
			"count":160,
			"max":[
				0.04999999701976776,
				1.8249999284744263,
				-0.04500001668930054
			],
			"min":[
				-0.04999999701976776,
				1.5089951753616333,
				-0.10499998927116394
			],
			"type":"VEC3"
		},
		{
			"bufferView":17,
			"componentType":5126,
			"count":160,
			"type":"VEC3"
		},
		{
			"bufferView":18,
			"componentType":5126,
			"count":160,
			"type":"VEC2"
		},
		{
			"bufferView":19,
			"componentType":5123,
			"count":324,
			"type":"SCALAR"
		},
		{
			"bufferView":20,
			"componentType":5126,
			"count":72,
			"max":[
				0.12800003588199615,
				1.472999930381775,
				0.25191786885261536
			],
			"min":[
				-0.12800003588199615,
				1.3769999742507935,
				0.24899999797344208
			],
			"type":"VEC3"
		},
		{
			"bufferView":21,
			"componentType":5126,
			"count":72,
			"type":"VEC3"
		},
		{
			"bufferView":22,
			"componentType":5126,
			"count":72,
			"type":"VEC2"
		},
		{
			"bufferView":23,
			"componentType":5123,
			"count":348,
			"type":"SCALAR"
		}
	],
	"bufferViews":[
		{
			"buffer":0,
			"byteLength":1236,
			"byteOffset":0,
			"target":34962
		},
		{
			"buffer":0,
			"byteLength":1236,
			"byteOffset":1236,
			"target":34962
		},
		{
			"buffer":0,
			"byteLength":824,
			"byteOffset":2472,
			"target":34962
		},
		{
			"buffer":0,
			"byteLength":1008,
			"byteOffset":3296,
			"target":34963
		},
		{
			"buffer":0,
			"byteLength":7176,
			"byteOffset":4304,
			"target":34962
		},
		{
			"buffer":0,
			"byteLength":7176,
			"byteOffset":11480,
			"target":34962
		},
		{
			"buffer":0,
			"byteLength":4784,
			"byteOffset":18656,
			"target":34962
		},
		{
			"buffer":0,
			"byteLength":3852,
			"byteOffset":23440,
			"target":34963
		},
		{
			"buffer":0,
			"byteLength":960,
			"byteOffset":27292,
			"target":34962
		},
		{
			"buffer":0,
			"byteLength":960,
			"byteOffset":28252,
			"target":34962
		},
		{
			"buffer":0,
			"byteLength":640,
			"byteOffset":29212,
			"target":34962
		},
		{
			"buffer":0,
			"byteLength":336,
			"byteOffset":29852,
			"target":34963
		},
		{
			"buffer":0,
			"byteLength":396,
			"byteOffset":30188,
			"target":34962
		},
		{
			"buffer":0,
			"byteLength":396,
			"byteOffset":30584,
			"target":34962
		},
		{
			"buffer":0,
			"byteLength":264,
			"byteOffset":30980,
			"target":34962
		},
		{
			"buffer":0,
			"byteLength":216,
			"byteOffset":31244,
			"target":34963
		},
		{
			"buffer":0,
			"byteLength":1920,
			"byteOffset":31460,
			"target":34962
		},
		{
			"buffer":0,
			"byteLength":1920,
			"byteOffset":33380,
			"target":34962
		},
		{
			"buffer":0,
			"byteLength":1280,
			"byteOffset":35300,
			"target":34962
		},
		{
			"buffer":0,
			"byteLength":648,
			"byteOffset":36580,
			"target":34963
		},
		{
			"buffer":0,
			"byteLength":864,
			"byteOffset":37228,
			"target":34962
		},
		{
			"buffer":0,
			"byteLength":864,
			"byteOffset":38092,
			"target":34962
		},
		{
			"buffer":0,
			"byteLength":576,
			"byteOffset":38956,
			"target":34962
		},
		{
			"buffer":0,
			"byteLength":696,
			"byteOffset":39532,
			"target":34963
		}
	],
	"buffers":[
		{
			"byteLength":40228,
			"uri":"head.bin"
		}
	]
}
