{
	"asset":{
		"generator":"Khronos glTF Blender I/O v4.3.47",
		"version":"2.0"
	},
	"scene":0,
	"scenes":[
		{
			"name":"Scene",
			"nodes":[
				0,
				1,
				2
			]
		}
	],
	"nodes":[
		{
			"mesh":0,
			"name":"bottle",
			"rotation":[
				0,
				0.7071067094802856,
				0,
				0.7071068286895752
			],
			"translation":[
				0,
				0.45000001788139343,
				-0.6792246103286743
			]
		},
		{
			"mesh":1,
			"name":"top",
			"rotation":[
				0,
				0.7071067094802856,
				0,
				0.7071068286895752
			],
			"translation":[
				0,
				0.45000001788139343,
				-0.6792246103286743
			]
		},
		{
			"mesh":2,
			"name":"liq",
			"rotation":[
				0,
				0.7071067094802856,
				0,
				0.7071068286895752
			],
			"translation":[
				0,
				0.45000001788139343,
				-0.6792246103286743
			]
		}
	],
	"meshes":[
		{
			"name":"Circle.024",
			"primitives":[
				{
					"attributes":{
						"POSITION":0,
						"NORMAL":1,
						"TEXCOORD_0":2
					},
					"indices":3
				}
			]
		},
		{
			"name":"Circle.025",
			"primitives":[
				{
					"attributes":{
						"POSITION":4,
						"NORMAL":5,
						"TEXCOORD_0":6
					},
					"indices":7
				}
			]
		},
		{
			"name":"Circle.027",
			"primitives":[
				{
					"attributes":{
						"POSITION":8,
						"NORMAL":9,
						"TEXCOORD_0":10
					},
					"indices":11
				}
			]
		}
	],
	"accessors":[
		{
			"bufferView":0,
			"componentType":5126,
			"count":340,
			"max":[
				0.1342979371547699,
				0.7424903512001038,
				0.23453710973262787
			],
			"min":[
				-0.1342979371547699,
				-0.015127689577639103,
				-0.23453710973262787
			],
			"type":"VEC3"
		},
		{
			"bufferView":1,
			"componentType":5126,
			"count":340,
			"type":"VEC3"
		},
		{
			"bufferView":2,
			"componentType":5126,
			"count":340,
			"type":"VEC2"
		},
		{
			"bufferView":3,
			"componentType":5123,
			"count":1974,
			"type":"SCALAR"
		},
		{
			"bufferView":4,
			"componentType":5126,
			"count":161,
			"max":[
				0.06430035829544067,
				0.8618423938751221,
				0.06430035829544067
			],
			"min":[
				-0.06430035829544067,
				0.7424903512001038,
				-0.06430035829544067
			],
			"type":"VEC3"
		},
		{
			"bufferView":5,
			"componentType":5126,
			"count":161,
			"type":"VEC3"
		},
		{
			"bufferView":6,
			"componentType":5126,
			"count":161,
			"type":"VEC2"
		},
		{
			"bufferView":7,
			"componentType":5123,
			"count":648,
			"type":"SCALAR"
		},
		{
			"bufferView":8,
			"componentType":5126,
			"count":200,
			"max":[
				0.11636960506439209,
				0.39911940693855286,
				0.21410158276557922
			],
			"min":[
				-0.11636960506439209,
				-0.0027534672990441322,
				-0.2142864465713501
			],
			"type":"VEC3"
		},
		{
			"bufferView":9,
			"componentType":5126,
			"count":200,
			"type":"VEC3"
		},
		{
			"bufferView":10,
			"componentType":5126,
			"count":200,
			"type":"VEC2"
		},
		{
			"bufferView":11,
			"componentType":5123,
			"count":1188,
			"type":"SCALAR"
		}
	],
	"bufferViews":[
		{
			"buffer":0,
			"byteLength":4080,
			"byteOffset":0,
			"target":34962
		},
		{
			"buffer":0,
			"byteLength":4080,
			"byteOffset":4080,
			"target":34962
		},
		{
			"buffer":0,
			"byteLength":2720,
			"byteOffset":8160,
			"target":34962
		},
		{
			"buffer":0,
			"byteLength":3948,
			"byteOffset":10880,
			"target":34963
		},
		{
			"buffer":0,
			"byteLength":1932,
			"byteOffset":14828,
			"target":34962
		},
		{
			"buffer":0,
			"byteLength":1932,
			"byteOffset":16760,
			"target":34962
		},
		{
			"buffer":0,
			"byteLength":1288,
			"byteOffset":18692,
			"target":34962
		},
		{
			"buffer":0,
			"byteLength":1296,
			"byteOffset":19980,
			"target":34963
		},
		{
			"buffer":0,
			"byteLength":2400,
			"byteOffset":21276,
			"target":34962
		},
		{
			"buffer":0,
			"byteLength":2400,
			"byteOffset":23676,
			"target":34962
		},
		{
			"buffer":0,
			"byteLength":1600,
			"byteOffset":26076,
			"target":34962
		},
		{
			"buffer":0,
			"byteLength":2376,
			"byteOffset":27676,
			"target":34963
		}
	],
	"buffers":[
		{
			"byteLength":30052,
			"uri":"washingup_liq.bin"
		}
	]
}
