{
	"asset":{
		"generator":"Khronos glTF Blender I/O v4.3.47",
		"version":"2.0"
	},
	"scene":0,
	"scenes":[
		{
			"name":"Scene",
			"nodes":[
				0
			]
		}
	],
	"nodes":[
		{
			"mesh":0,
			"name":"washingup_liq_support",
			"translation":[
				0,
				-0.10000000149011612,
				0
			]
		}
	],
	"meshes":[
		{
			"name":"Plane.023",
			"primitives":[
				{
					"attributes":{
						"POSITION":0,
						"NORMAL":1,
						"TEXCOORD_0":2
					},
					"indices":3
				}
			]
		}
	],
	"accessors":[
		{
			"bufferView":0,
			"componentType":5126,
			"count":310,
			"max":[
				0.2071978896856308,
				0.7107661962509155,
				-0.2790025770664215
			],
			"min":[
				-0.2071978896856308,
				0.5007897615432739,
				-0.8535544872283936
			],
			"type":"VEC3"
		},
		{
			"bufferView":1,
			"componentType":5126,
			"count":310,
			"type":"VEC3"
		},
		{
			"bufferView":2,
			"componentType":5126,
			"count":310,
			"type":"VEC2"
		},
		{
			"bufferView":3,
			"componentType":5123,
			"count":564,
			"type":"SCALAR"
		}
	],
	"bufferViews":[
		{
			"buffer":0,
			"byteLength":3720,
			"byteOffset":0,
			"target":34962
		},
		{
			"buffer":0,
			"byteLength":3720,
			"byteOffset":3720,
			"target":34962
		},
		{
			"buffer":0,
			"byteLength":2480,
			"byteOffset":7440,
			"target":34962
		},
		{
			"buffer":0,
			"byteLength":1128,
			"byteOffset":9920,
			"target":34963
		}
	],
	"buffers":[
		{
			"byteLength":11048,
			"uri":"washingup_liq_support.bin"
		}
	]
}
