{
	"asset":{
		"generator":"Khronos glTF Blender I/O v4.3.47",
		"version":"2.0"
	},
	"scene":0,
	"scenes":[
		{
			"name":"Scene",
			"nodes":[
				0
			]
		}
	],
	"nodes":[
		{
			"mesh":0,
			"name":"big_whe",
			"translation":[
				0,
				0.20000000298023224,
				-0.3499999940395355
			]
		}
	],
	"meshes":[
		{
			"name":"Circle.016",
			"primitives":[
				{
					"attributes":{
						"POSITION":0,
						"NORMAL":1,
						"TEXCOORD_0":2
					},
					"indices":3
				}
			]
		}
	],
	"accessors":[
		{
			"bufferView":0,
			"componentType":5126,
			"count":866,
			"max":[
				0.07499999552965164,
				-0.013617992401123047,
				0.5363820791244507
			],
			"min":[
				5.122274160385132e-09,
				-0.3863820731639862,
				0.16361795365810394
			],
			"type":"VEC3"
		},
		{
			"bufferView":1,
			"componentType":5126,
			"count":866,
			"type":"VEC3"
		},
		{
			"bufferView":2,
			"componentType":5126,
			"count":866,
			"type":"VEC2"
		},
		{
			"bufferView":3,
			"componentType":5123,
			"count":2496,
			"type":"SCALAR"
		}
	],
	"bufferViews":[
		{
			"buffer":0,
			"byteLength":10392,
			"byteOffset":0,
			"target":34962
		},
		{
			"buffer":0,
			"byteLength":10392,
			"byteOffset":10392,
			"target":34962
		},
		{
			"buffer":0,
			"byteLength":6928,
			"byteOffset":20784,
			"target":34962
		},
		{
			"buffer":0,
			"byteLength":4992,
			"byteOffset":27712,
			"target":34963
		}
	],
	"buffers":[
		{
			"byteLength":32704,
			"uri":"wheel_big.bin"
		}
	]
}
