{
	"asset":{
		"generator":"Khronos glTF Blender I/O v4.3.47",
		"version":"2.0"
	},
	"extensionsUsed":[
		"KHR_materials_specular"
	],
	"scene":0,
	"scenes":[
		{
			"name":"Scene",
			"nodes":[
				0
			]
		}
	],
	"nodes":[
		{
			"mesh":0,
			"name":"TrashSmall",
			"translation":[
				0.007382869720458984,
				0.2434309720993042,
				0.13882169127464294
			]
		}
	],
	"materials":[
		{
			"doubleSided":true,
			"extensions":{
				"KHR_materials_specular":{
					"specularColorFactor":[
						1.600000023841858,
						1.600000023841858,
						1.600000023841858
					]
				}
			},
			"name":"PlasticBlack",
			"pbrMetallicRoughness":{
				"baseColorFactor":[
					0.002100477460771799,
					0.002100477460771799,
					0.002100477460771799,
					1
				],
				"metallicFactor":0,
				"roughnessFactor":0.4000000059604645
			}
		},
		{
			"doubleSided":true,
			"name":"PlasticOrange",
			"pbrMetallicRoughness":{
				"baseColorFactor":[
					0.8010241389274597,
					0.06987335532903671,
					0.02692459709942341,
					1
				],
				"metallicFactor":0,
				"roughnessFactor":0.16055044531822205
			}
		}
	],
	"meshes":[
		{
			"name":"TrashSmall",
			"primitives":[
				{
					"attributes":{
						"POSITION":0,
						"NORMAL":1,
						"TEXCOORD_0":2
					},
					"indices":3,
					"material":0
				},
				{
					"attributes":{
						"POSITION":4,
						"NORMAL":5,
						"TEXCOORD_0":6
					},
					"indices":7,
					"material":1
				}
			]
		}
	],
	"accessors":[
		{
			"bufferView":0,
			"componentType":5126,
			"count":168,
			"max":[
				0.45737481117248535,
				0.7683557271957397,
				0.41434159874916077
			],
			"min":[
				-0.4748955965042114,
				-0.4516946077346802,
				-0.6433056592941284
			],
			"type":"VEC3"
		},
		{
			"bufferView":1,
			"componentType":5126,
			"count":168,
			"type":"VEC3"
		},
		{
			"bufferView":2,
			"componentType":5126,
			"count":168,
			"type":"VEC2"
		},
		{
			"bufferView":3,
			"componentType":5123,
			"count":954,
			"type":"SCALAR"
		},
		{
			"bufferView":4,
			"componentType":5126,
			"count":219,
			"max":[
				0.18928933143615723,
				0.521872878074646,
				0.13313910365104675
			],
			"min":[
				-0.26990199089050293,
				0.35797107219696045,
				-0.10742917656898499
			],
			"type":"VEC3"
		},
		{
			"bufferView":5,
			"componentType":5126,
			"count":219,
			"type":"VEC3"
		},
		{
			"bufferView":6,
			"componentType":5126,
			"count":219,
			"type":"VEC2"
		},
		{
			"bufferView":7,
			"componentType":5123,
			"count":378,
			"type":"SCALAR"
		}
	],
	"bufferViews":[
		{
			"buffer":0,
			"byteLength":2016,
			"byteOffset":0,
			"target":34962
		},
		{
			"buffer":0,
			"byteLength":2016,
			"byteOffset":2016,
			"target":34962
		},
		{
			"buffer":0,
			"byteLength":1344,
			"byteOffset":4032,
			"target":34962
		},
		{
			"buffer":0,
			"byteLength":1908,
			"byteOffset":5376,
			"target":34963
		},
		{
			"buffer":0,
			"byteLength":2628,
			"byteOffset":7284,
			"target":34962
		},
		{
			"buffer":0,
			"byteLength":2628,
			"byteOffset":9912,
			"target":34962
		},
		{
			"buffer":0,
			"byteLength":1752,
			"byteOffset":12540,
			"target":34962
		},
		{
			"buffer":0,
			"byteLength":756,
			"byteOffset":14292,
			"target":34963
		}
	],
	"buffers":[
		{
			"byteLength":15048,
			"uri":"trashbag_small.bin"
		}
	]
}
