{
	"asset":{
		"generator":"Khronos glTF Blender I/O v4.3.47",
		"version":"2.0"
	},
	"extensionsUsed":[
		"KHR_materials_specular"
	],
	"scene":0,
	"scenes":[
		{
			"name":"Scene",
			"nodes":[
				0
			]
		}
	],
	"nodes":[
		{
			"mesh":0,
			"name":"TrashLarge",
			"translation":[
				0.036408424377441406,
				0.6289885640144348,
				-0.003212331561371684
			]
		}
	],
	"materials":[
		{
			"doubleSided":true,
			"extensions":{
				"KHR_materials_specular":{
					"specularColorFactor":[
						1.600000023841858,
						1.600000023841858,
						1.600000023841858
					]
				}
			},
			"name":"PlasticBlack",
			"pbrMetallicRoughness":{
				"baseColorFactor":[
					0.002100477460771799,
					0.002100477460771799,
					0.002100477460771799,
					1
				],
				"metallicFactor":0,
				"roughnessFactor":0.4000000059604645
			}
		},
		{
			"doubleSided":true,
			"name":"PlasticOrange",
			"pbrMetallicRoughness":{
				"baseColorFactor":[
					0.8010241389274597,
					0.06987335532903671,
					0.02692459709942341,
					1
				],
				"metallicFactor":0,
				"roughnessFactor":0.16055044531822205
			}
		}
	],
	"meshes":[
		{
			"name":"TrashLarge",
			"primitives":[
				{
					"attributes":{
						"POSITION":0,
						"NORMAL":1,
						"TEXCOORD_0":2
					},
					"indices":3,
					"material":0
				},
				{
					"attributes":{
						"POSITION":4,
						"NORMAL":5,
						"TEXCOORD_0":6
					},
					"indices":7,
					"material":1
				}
			]
		}
	],
	"accessors":[
		{
			"bufferView":0,
			"componentType":5126,
			"count":239,
			"max":[
				1.0955016613006592,
				1.5248003005981445,
				1.2063742876052856
			],
			"min":[
				-1.113326907157898,
				-1.0749750137329102,
				-1.1381874084472656
			],
			"type":"VEC3"
		},
		{
			"bufferView":1,
			"componentType":5126,
			"count":239,
			"type":"VEC3"
		},
		{
			"bufferView":2,
			"componentType":5126,
			"count":239,
			"type":"VEC2"
		},
		{
			"bufferView":3,
			"componentType":5123,
			"count":1374,
			"type":"SCALAR"
		},
		{
			"bufferView":4,
			"componentType":5126,
			"count":306,
			"max":[
				0.47919636964797974,
				1.3349583148956299,
				0.48286333680152893
			],
			"min":[
				-0.18562372028827667,
				1.175363540649414,
				-0.4340094327926636
			],
			"type":"VEC3"
		},
		{
			"bufferView":5,
			"componentType":5126,
			"count":306,
			"type":"VEC3"
		},
		{
			"bufferView":6,
			"componentType":5126,
			"count":306,
			"type":"VEC2"
		},
		{
			"bufferView":7,
			"componentType":5123,
			"count":507,
			"type":"SCALAR"
		}
	],
	"bufferViews":[
		{
			"buffer":0,
			"byteLength":2868,
			"byteOffset":0,
			"target":34962
		},
		{
			"buffer":0,
			"byteLength":2868,
			"byteOffset":2868,
			"target":34962
		},
		{
			"buffer":0,
			"byteLength":1912,
			"byteOffset":5736,
			"target":34962
		},
		{
			"buffer":0,
			"byteLength":2748,
			"byteOffset":7648,
			"target":34963
		},
		{
			"buffer":0,
			"byteLength":3672,
			"byteOffset":10396,
			"target":34962
		},
		{
			"buffer":0,
			"byteLength":3672,
			"byteOffset":14068,
			"target":34962
		},
		{
			"buffer":0,
			"byteLength":2448,
			"byteOffset":17740,
			"target":34962
		},
		{
			"buffer":0,
			"byteLength":1014,
			"byteOffset":20188,
			"target":34963
		}
	],
	"buffers":[
		{
			"byteLength":21204,
			"uri":"trashbag_large.bin"
		}
	]
}
