{
	"asset":{
		"generator":"Khronos glTF Blender I/O v4.3.47",
		"version":"2.0"
	},
	"scene":0,
	"scenes":[
		{
			"name":"Scene",
			"nodes":[
				0,
				1,
				2,
				3
			]
		}
	],
	"nodes":[
		{
			"mesh":0,
			"name":"top"
		},
		{
			"mesh":1,
			"name":"speaker_1"
		},
		{
			"mesh":2,
			"name":"speaker_3"
		},
		{
			"mesh":3,
			"name":"speaker_2"
		}
	],
	"meshes":[
		{
			"name":"Plane.028",
			"primitives":[
				{
					"attributes":{
						"POSITION":0,
						"NORMAL":1,
						"TEXCOORD_0":2
					},
					"indices":3
				}
			]
		},
		{
			"name":"Plane.029",
			"primitives":[
				{
					"attributes":{
						"POSITION":4,
						"NORMAL":5,
						"TEXCOORD_0":6
					},
					"indices":7
				}
			]
		},
		{
			"name":"Plane.030",
			"primitives":[
				{
					"attributes":{
						"POSITION":8,
						"NORMAL":9,
						"TEXCOORD_0":10
					},
					"indices":11
				}
			]
		},
		{
			"name":"Plane.031",
			"primitives":[
				{
					"attributes":{
						"POSITION":12,
						"NORMAL":13,
						"TEXCOORD_0":14
					},
					"indices":15
				}
			]
		}
	],
	"accessors":[
		{
			"bufferView":0,
			"componentType":5126,
			"count":435,
			"max":[
				0.9000000357627869,
				1.1100001335144043,
				-1.100000023841858
			],
			"min":[
				-0.9000000357627869,
				0.5102803707122803,
				-1.2000000476837158
			],
			"type":"VEC3"
		},
		{
			"bufferView":1,
			"componentType":5126,
			"count":435,
			"type":"VEC3"
		},
		{
			"bufferView":2,
			"componentType":5126,
			"count":435,
			"type":"VEC2"
		},
		{
			"bufferView":3,
			"componentType":5123,
			"count":1482,
			"type":"SCALAR"
		},
		{
			"bufferView":4,
			"componentType":5126,
			"count":96,
			"max":[
				0.5567278265953064,
				1.0367279052734375,
				-1.1058846712112427
			],
			"min":[
				-0.5567278265953064,
				0.8232722282409668,
				-1.112544059753418
			],
			"type":"VEC3"
		},
		{
			"bufferView":5,
			"componentType":5126,
			"count":96,
			"type":"VEC3"
		},
		{
			"bufferView":6,
			"componentType":5126,
			"count":96,
			"type":"VEC2"
		},
		{
			"bufferView":7,
			"componentType":5123,
			"count":480,
			"type":"SCALAR"
		},
		{
			"bufferView":8,
			"componentType":5126,
			"count":32,
			"max":[
				0.4664131700992584,
				0.9464132785797119,
				-1.1250194311141968
			],
			"min":[
				-0.4664131700992584,
				0.9135868549346924,
				-1.1296181678771973
			],
			"type":"VEC3"
		},
		{
			"bufferView":9,
			"componentType":5126,
			"count":32,
			"type":"VEC3"
		},
		{
			"bufferView":10,
			"componentType":5126,
			"count":32,
			"type":"VEC2"
		},
		{
			"bufferView":11,
			"componentType":5123,
			"count":132,
			"type":"SCALAR"
		},
		{
			"bufferView":12,
			"componentType":5126,
			"count":48,
			"max":[
				0.5249636173248291,
				1.0049636363983154,
				-1.112544059753418
			],
			"min":[
				-0.5249636173248291,
				0.8550364375114441,
				-1.1296181678771973
			],
			"type":"VEC3"
		},
		{
			"bufferView":13,
			"componentType":5126,
			"count":48,
			"type":"VEC3"
		},
		{
			"bufferView":14,
			"componentType":5126,
			"count":48,
			"type":"VEC2"
		},
		{
			"bufferView":15,
			"componentType":5123,
			"count":192,
			"type":"SCALAR"
		}
	],
	"bufferViews":[
		{
			"buffer":0,
			"byteLength":5220,
			"byteOffset":0,
			"target":34962
		},
		{
			"buffer":0,
			"byteLength":5220,
			"byteOffset":5220,
			"target":34962
		},
		{
			"buffer":0,
			"byteLength":3480,
			"byteOffset":10440,
			"target":34962
		},
		{
			"buffer":0,
			"byteLength":2964,
			"byteOffset":13920,
			"target":34963
		},
		{
			"buffer":0,
			"byteLength":1152,
			"byteOffset":16884,
			"target":34962
		},
		{
			"buffer":0,
			"byteLength":1152,
			"byteOffset":18036,
			"target":34962
		},
		{
			"buffer":0,
			"byteLength":768,
			"byteOffset":19188,
			"target":34962
		},
		{
			"buffer":0,
			"byteLength":960,
			"byteOffset":19956,
			"target":34963
		},
		{
			"buffer":0,
			"byteLength":384,
			"byteOffset":20916,
			"target":34962
		},
		{
			"buffer":0,
			"byteLength":384,
			"byteOffset":21300,
			"target":34962
		},
		{
			"buffer":0,
			"byteLength":256,
			"byteOffset":21684,
			"target":34962
		},
		{
			"buffer":0,
			"byteLength":264,
			"byteOffset":21940,
			"target":34963
		},
		{
			"buffer":0,
			"byteLength":576,
			"byteOffset":22204,
			"target":34962
		},
		{
			"buffer":0,
			"byteLength":576,
			"byteOffset":22780,
			"target":34962
		},
		{
			"buffer":0,
			"byteLength":384,
			"byteOffset":23356,
			"target":34962
		},
		{
			"buffer":0,
			"byteLength":384,
			"byteOffset":23740,
			"target":34963
		}
	],
	"buffers":[
		{
			"byteLength":24124,
			"uri":"dumpster_mouse.bin"
		}
	]
}
