{
	"asset":{
		"generator":"Khronos glTF Blender I/O v4.3.47",
		"version":"2.0"
	},
	"scene":0,
	"scenes":[
		{
			"name":"Scene",
			"nodes":[
				0,
				1,
				2,
				3,
				4
			]
		}
	],
	"nodes":[
		{
			"mesh":0,
			"name":"main"
		},
		{
			"mesh":1,
			"name":"wheels"
		},
		{
			"mesh":2,
			"name":"mouth_bottom"
		},
		{
			"mesh":3,
			"name":"door_right",
			"rotation":[
				0,
				0.9761643409729004,
				0,
				0.21703270077705383
			],
			"translation":[
				0.6740903258323669,
				0,
				5.738755226135254
			]
		},
		{
			"mesh":4,
			"name":"door_left",
			"rotation":[
				-0.5890058279037476,
				0,
				-0.8081287741661072,
				0
			],
			"scale":[
				-1,
				-1,
				-1
			],
			"translation":[
				1.3747215270996094,
				0,
				4.56158971786499
			]
		}
	],
	"meshes":[
		{
			"name":"Plane.001",
			"primitives":[
				{
					"attributes":{
						"POSITION":0,
						"NORMAL":1,
						"TEXCOORD_0":2
					},
					"indices":3
				}
			]
		},
		{
			"name":"Plane.026",
			"primitives":[
				{
					"attributes":{
						"POSITION":4,
						"NORMAL":5,
						"TEXCOORD_0":6
					},
					"indices":7
				}
			]
		},
		{
			"name":"Plane.027",
			"primitives":[
				{
					"attributes":{
						"POSITION":8,
						"NORMAL":9,
						"TEXCOORD_0":10
					},
					"indices":11
				}
			]
		},
		{
			"name":"Plane.015",
			"primitives":[
				{
					"attributes":{
						"POSITION":12,
						"NORMAL":13,
						"TEXCOORD_0":14
					},
					"indices":15
				}
			]
		},
		{
			"name":"Plane.015",
			"primitives":[
				{
					"attributes":{
						"POSITION":16,
						"NORMAL":17,
						"TEXCOORD_0":18
					},
					"indices":15
				}
			]
		}
	],
	"accessors":[
		{
			"bufferView":0,
			"componentType":5126,
			"count":3787,
			"max":[
				1,
				1.3000000715255737,
				2.801762104034424
			],
			"min":[
				-1,
				0.030205974355340004,
				-1.2999999523162842
			],
			"type":"VEC3"
		},
		{
			"bufferView":1,
			"componentType":5126,
			"count":3787,
			"type":"VEC3"
		},
		{
			"bufferView":2,
			"componentType":5126,
			"count":3787,
			"type":"VEC2"
		},
		{
			"bufferView":3,
			"componentType":5123,
			"count":18084,
			"type":"SCALAR"
		},
		{
			"bufferView":4,
			"componentType":5126,
			"count":176,
			"max":[
				0.9800000190734863,
				0.09070026129484177,
				2.7950000762939453
			],
			"min":[
				-0.9800000190734863,
				0.0007002372294664383,
				2.705000400543213
			],
			"type":"VEC3"
		},
		{
			"bufferView":5,
			"componentType":5126,
			"count":176,
			"type":"VEC3"
		},
		{
			"bufferView":6,
			"componentType":5126,
			"count":176,
			"type":"VEC2"
		},
		{
			"bufferView":7,
			"componentType":5123,
			"count":516,
			"type":"SCALAR"
		},
		{
			"bufferView":8,
			"componentType":5126,
			"count":189,
			"max":[
				0.9000000357627869,
				0.7000000476837158,
				-1.100000023841858
			],
			"min":[
				-0.9000000357627869,
				0.20000004768371582,
				-1.2000000476837158
			],
			"type":"VEC3"
		},
		{
			"bufferView":9,
			"componentType":5126,
			"count":189,
			"type":"VEC3"
		},
		{
			"bufferView":10,
			"componentType":5126,
			"count":189,
			"type":"VEC2"
		},
		{
			"bufferView":11,
			"componentType":5123,
			"count":558,
			"type":"SCALAR"
		},
		{
			"bufferView":12,
			"componentType":5126,
			"count":177,
			"max":[
				0.9500000476837158,
				1.3000000715255737,
				2.859999895095825
			],
			"min":[
				-0.05000005662441254,
				0.20000001788139343,
				2.799999952316284
			],
			"type":"VEC3"
		},
		{
			"bufferView":13,
			"componentType":5126,
			"count":177,
			"type":"VEC3"
		},
		{
			"bufferView":14,
			"componentType":5126,
			"count":177,
			"type":"VEC2"
		},
		{
			"bufferView":15,
			"componentType":5123,
			"count":852,
			"type":"SCALAR"
		},
		{
			"bufferView":16,
			"componentType":5126,
			"count":177,
			"max":[
				0.9500000476837158,
				1.3000000715255737,
				2.859999895095825
			],
			"min":[
				-0.05000005662441254,
				0.20000001788139343,
				2.799999952316284
			],
			"type":"VEC3"
		},
		{
			"bufferView":17,
			"componentType":5126,
			"count":177,
			"type":"VEC3"
		},
		{
			"bufferView":18,
			"componentType":5126,
			"count":177,
			"type":"VEC2"
		}
	],
	"bufferViews":[
		{
			"buffer":0,
			"byteLength":45444,
			"byteOffset":0,
			"target":34962
		},
		{
			"buffer":0,
			"byteLength":45444,
			"byteOffset":45444,
			"target":34962
		},
		{
			"buffer":0,
			"byteLength":30296,
			"byteOffset":90888,
			"target":34962
		},
		{
			"buffer":0,
			"byteLength":36168,
			"byteOffset":121184,
			"target":34963
		},
		{
			"buffer":0,
			"byteLength":2112,
			"byteOffset":157352,
			"target":34962
		},
		{
			"buffer":0,
			"byteLength":2112,
			"byteOffset":159464,
			"target":34962
		},
		{
			"buffer":0,
			"byteLength":1408,
			"byteOffset":161576,
			"target":34962
		},
		{
			"buffer":0,
			"byteLength":1032,
			"byteOffset":162984,
			"target":34963
		},
		{
			"buffer":0,
			"byteLength":2268,
			"byteOffset":164016,
			"target":34962
		},
		{
			"buffer":0,
			"byteLength":2268,
			"byteOffset":166284,
			"target":34962
		},
		{
			"buffer":0,
			"byteLength":1512,
			"byteOffset":168552,
			"target":34962
		},
		{
			"buffer":0,
			"byteLength":1116,
			"byteOffset":170064,
			"target":34963
		},
		{
			"buffer":0,
			"byteLength":2124,
			"byteOffset":171180,
			"target":34962
		},
		{
			"buffer":0,
			"byteLength":2124,
			"byteOffset":173304,
			"target":34962
		},
		{
			"buffer":0,
			"byteLength":1416,
			"byteOffset":175428,
			"target":34962
		},
		{
			"buffer":0,
			"byteLength":1704,
			"byteOffset":176844,
			"target":34963
		},
		{
			"buffer":0,
			"byteLength":2124,
			"byteOffset":178548,
			"target":34962
		},
		{
			"buffer":0,
			"byteLength":2124,
			"byteOffset":180672,
			"target":34962
		},
		{
			"buffer":0,
			"byteLength":1416,
			"byteOffset":182796,
			"target":34962
		}
	],
	"buffers":[
		{
			"byteLength":184212,
			"uri":"dumpster.bin"
		}
	]
}
