{
	"asset":{
		"generator":"Khronos glTF Blender I/O v4.3.47",
		"version":"2.0"
	},
	"scene":0,
	"scenes":[
		{
			"name":"Scene",
			"nodes":[
				0
			]
		}
	],
	"nodes":[
		{
			"mesh":0,
			"name":"Bin_A"
		}
	],
	"materials":[
		{
			"doubleSided":true,
			"name":"MetlaRusty",
			"pbrMetallicRoughness":{
				"baseColorFactor":[
					0.01821102574467659,
					0.011390531435608864,
					0.010501422919332981,
					1
				],
				"metallicFactor":0,
				"roughnessFactor":0.5
			}
		}
	],
	"meshes":[
		{
			"name":"Bin_A",
			"primitives":[
				{
					"attributes":{
						"POSITION":0,
						"NORMAL":1,
						"TEXCOORD_0":2
					},
					"indices":3,
					"material":0
				}
			]
		}
	],
	"accessors":[
		{
			"bufferView":0,
			"componentType":5126,
			"count":486,
			"max":[
				0.4255807399749756,
				1.4521307945251465,
				0.42558109760284424
			],
			"min":[
				-0.4255812466144562,
				-0.27207642793655396,
				-0.42558103799819946
			],
			"type":"VEC3"
		},
		{
			"bufferView":1,
			"componentType":5126,
			"count":486,
			"type":"VEC3"
		},
		{
			"bufferView":2,
			"componentType":5126,
			"count":486,
			"type":"VEC2"
		},
		{
			"bufferView":3,
			"componentType":5123,
			"count":2586,
			"type":"SCALAR"
		}
	],
	"bufferViews":[
		{
			"buffer":0,
			"byteLength":5832,
			"byteOffset":0,
			"target":34962
		},
		{
			"buffer":0,
			"byteLength":5832,
			"byteOffset":5832,
			"target":34962
		},
		{
			"buffer":0,
			"byteLength":3888,
			"byteOffset":11664,
			"target":34962
		},
		{
			"buffer":0,
			"byteLength":5172,
			"byteOffset":15552,
			"target":34963
		}
	],
	"buffers":[
		{
			"byteLength":20724,
			"uri":"bin_a.bin"
		}
	]
}
