{
	"asset":{
		"generator":"Khronos glTF Blender I/O v4.3.47",
		"version":"2.0"
	},
	"scene":0,
	"scenes":[
		{
			"name":"Scene",
			"nodes":[
				0
			]
		}
	],
	"nodes":[
		{
			"mesh":0,
			"name":"Lamp__A",
			"scale":[
				0.19980114698410034,
				0.19980114698410034,
				0.19980114698410034
			]
		}
	],
	"materials":[
		{
			"doubleSided":true,
			"name":"MetlaRusty",
			"pbrMetallicRoughness":{
				"baseColorFactor":[
					0.01821102574467659,
					0.011390531435608864,
					0.010501422919332981,
					1
				],
				"metallicFactor":0,
				"roughnessFactor":0.5
			}
		}
	],
	"meshes":[
		{
			"name":"Lamp__A",
			"primitives":[
				{
					"attributes":{
						"POSITION":0,
						"NORMAL":1,
						"TEXCOORD_0":2
					},
					"indices":3,
					"material":0
				}
			]
		}
	],
	"accessors":[
		{
			"bufferView":0,
			"componentType":5126,
			"count":317,
			"max":[
				2.2813286781311035,
				34.30470275878906,
				7.934424877166748
			],
			"min":[
				-2.802858352661133,
				-1.3652232885360718,
				-0.8134446144104004
			],
			"type":"VEC3"
		},
		{
			"bufferView":1,
			"componentType":5126,
			"count":317,
			"type":"VEC3"
		},
		{
			"bufferView":2,
			"componentType":5126,
			"count":317,
			"type":"VEC2"
		},
		{
			"bufferView":3,
			"componentType":5123,
			"count":1818,
			"type":"SCALAR"
		}
	],
	"bufferViews":[
		{
			"buffer":0,
			"byteLength":3804,
			"byteOffset":0,
			"target":34962
		},
		{
			"buffer":0,
			"byteLength":3804,
			"byteOffset":3804,
			"target":34962
		},
		{
			"buffer":0,
			"byteLength":2536,
			"byteOffset":7608,
			"target":34962
		},
		{
			"buffer":0,
			"byteLength":3636,
			"byteOffset":10144,
			"target":34963
		}
	],
	"buffers":[
		{
			"byteLength":13780,
			"uri":"lamp_a.bin"
		}
	]
}
