{
	"asset":{
		"generator":"Khronos glTF Blender I/O v4.3.47",
		"version":"2.0"
	},
	"scene":0,
	"scenes":[
		{
			"name":"Scene",
			"nodes":[
				0
			]
		}
	],
	"nodes":[
		{
			"mesh":0,
			"name":"Pile_B",
			"scale":[
				1.7659251689910889,
				1.426211953163147,
				1.3022985458374023
			],
			"translation":[
				-0.03178071975708008,
				-0.09379187226295471,
				-0.5983009338378906
			]
		}
	],
	"materials":[
		{
			"doubleSided":true,
			"name":"MetlaRusty",
			"pbrMetallicRoughness":{
				"baseColorFactor":[
					0.01821102574467659,
					0.011390531435608864,
					0.010501422919332981,
					1
				],
				"metallicFactor":0,
				"roughnessFactor":0.5
			}
		},
		{
			"doubleSided":true,
			"name":"Wood",
			"pbrMetallicRoughness":{
				"baseColorFactor":[
					0.09168615937232971,
					0.03077893890440464,
					0.017621641978621483,
					1
				],
				"metallicFactor":0,
				"roughnessFactor":0.5
			}
		}
	],
	"meshes":[
		{
			"name":"Pile_B",
			"primitives":[
				{
					"attributes":{
						"POSITION":0,
						"NORMAL":1,
						"TEXCOORD_0":2
					},
					"indices":3,
					"material":0
				},
				{
					"attributes":{
						"POSITION":4,
						"NORMAL":5,
						"TEXCOORD_0":6
					},
					"indices":7,
					"material":1
				}
			]
		}
	],
	"accessors":[
		{
			"bufferView":0,
			"componentType":5126,
			"count":535,
			"max":[
				1.490130066871643,
				1.178716778755188,
				2.5025267601013184
			],
			"min":[
				-1.5739014148712158,
				0.02224847488105297,
				-1.538745403289795
			],
			"type":"VEC3"
		},
		{
			"bufferView":1,
			"componentType":5126,
			"count":535,
			"type":"VEC3"
		},
		{
			"bufferView":2,
			"componentType":5126,
			"count":535,
			"type":"VEC2"
		},
		{
			"bufferView":3,
			"componentType":5123,
			"count":2619,
			"type":"SCALAR"
		},
		{
			"bufferView":4,
			"componentType":5126,
			"count":144,
			"max":[
				1.1315513849258423,
				1.0886554718017578,
				1.4664851427078247
			],
			"min":[
				-0.8253941535949707,
				0.31876257061958313,
				-0.9687497615814209
			],
			"type":"VEC3"
		},
		{
			"bufferView":5,
			"componentType":5126,
			"count":144,
			"type":"VEC3"
		},
		{
			"bufferView":6,
			"componentType":5126,
			"count":144,
			"type":"VEC2"
		},
		{
			"bufferView":7,
			"componentType":5123,
			"count":216,
			"type":"SCALAR"
		}
	],
	"bufferViews":[
		{
			"buffer":0,
			"byteLength":6420,
			"byteOffset":0,
			"target":34962
		},
		{
			"buffer":0,
			"byteLength":6420,
			"byteOffset":6420,
			"target":34962
		},
		{
			"buffer":0,
			"byteLength":4280,
			"byteOffset":12840,
			"target":34962
		},
		{
			"buffer":0,
			"byteLength":5238,
			"byteOffset":17120,
			"target":34963
		},
		{
			"buffer":0,
			"byteLength":1728,
			"byteOffset":22360,
			"target":34962
		},
		{
			"buffer":0,
			"byteLength":1728,
			"byteOffset":24088,
			"target":34962
		},
		{
			"buffer":0,
			"byteLength":1152,
			"byteOffset":25816,
			"target":34962
		},
		{
			"buffer":0,
			"byteLength":432,
			"byteOffset":26968,
			"target":34963
		}
	],
	"buffers":[
		{
			"byteLength":27400,
			"uri":"pile_b.bin"
		}
	]
}
