{
	"asset":{
		"generator":"Khronos glTF Blender I/O v4.3.47",
		"version":"2.0"
	},
	"scene":0,
	"scenes":[
		{
			"name":"Scene",
			"nodes":[
				0
			]
		}
	],
	"nodes":[
		{
			"mesh":0,
			"name":"Pile_C",
			"scale":[
				1.7659251689910889,
				1.426211953163147,
				1.3022985458374023
			],
			"translation":[
				-0.05749964714050293,
				-0.08398899435997009,
				-0.8051347732543945
			]
		}
	],
	"materials":[
		{
			"doubleSided":true,
			"name":"MetlaRusty",
			"pbrMetallicRoughness":{
				"baseColorFactor":[
					0.01821102574467659,
					0.011390531435608864,
					0.010501422919332981,
					1
				],
				"metallicFactor":0,
				"roughnessFactor":0.5
			}
		},
		{
			"doubleSided":true,
			"name":"Wood",
			"pbrMetallicRoughness":{
				"baseColorFactor":[
					0.09168615937232971,
					0.03077893890440464,
					0.017621641978621483,
					1
				],
				"metallicFactor":0,
				"roughnessFactor":0.5
			}
		}
	],
	"meshes":[
		{
			"name":"Pile_C",
			"primitives":[
				{
					"attributes":{
						"POSITION":0,
						"NORMAL":1,
						"TEXCOORD_0":2
					},
					"indices":3,
					"material":0
				},
				{
					"attributes":{
						"POSITION":4,
						"NORMAL":5,
						"TEXCOORD_0":6
					},
					"indices":7,
					"material":1
				}
			]
		}
	],
	"accessors":[
		{
			"bufferView":0,
			"componentType":5126,
			"count":535,
			"max":[
				1.5983836650848389,
				0.8120008111000061,
				3.0039830207824707
			],
			"min":[
				-1.4637234210968018,
				-0.08982406556606293,
				-1.4898202419281006
			],
			"type":"VEC3"
		},
		{
			"bufferView":1,
			"componentType":5126,
			"count":535,
			"type":"VEC3"
		},
		{
			"bufferView":2,
			"componentType":5126,
			"count":535,
			"type":"VEC2"
		},
		{
			"bufferView":3,
			"componentType":5123,
			"count":2619,
			"type":"SCALAR"
		},
		{
			"bufferView":4,
			"componentType":5126,
			"count":144,
			"max":[
				1.2374773025512695,
				0.7229888439178467,
				1.9343533515930176
			],
			"min":[
				-0.7356796264648438,
				0.09184956550598145,
				-0.8411386609077454
			],
			"type":"VEC3"
		},
		{
			"bufferView":5,
			"componentType":5126,
			"count":144,
			"type":"VEC3"
		},
		{
			"bufferView":6,
			"componentType":5126,
			"count":144,
			"type":"VEC2"
		},
		{
			"bufferView":7,
			"componentType":5123,
			"count":216,
			"type":"SCALAR"
		}
	],
	"bufferViews":[
		{
			"buffer":0,
			"byteLength":6420,
			"byteOffset":0,
			"target":34962
		},
		{
			"buffer":0,
			"byteLength":6420,
			"byteOffset":6420,
			"target":34962
		},
		{
			"buffer":0,
			"byteLength":4280,
			"byteOffset":12840,
			"target":34962
		},
		{
			"buffer":0,
			"byteLength":5238,
			"byteOffset":17120,
			"target":34963
		},
		{
			"buffer":0,
			"byteLength":1728,
			"byteOffset":22360,
			"target":34962
		},
		{
			"buffer":0,
			"byteLength":1728,
			"byteOffset":24088,
			"target":34962
		},
		{
			"buffer":0,
			"byteLength":1152,
			"byteOffset":25816,
			"target":34962
		},
		{
			"buffer":0,
			"byteLength":432,
			"byteOffset":26968,
			"target":34963
		}
	],
	"buffers":[
		{
			"byteLength":27400,
			"uri":"pile_c.bin"
		}
	]
}
