{
	"asset":{
		"generator":"Khronos glTF Blender I/O v4.3.47",
		"version":"2.0"
	},
	"scene":0,
	"scenes":[
		{
			"name":"Scene",
			"nodes":[
				0
			]
		}
	],
	"nodes":[
		{
			"mesh":0,
			"name":"SkyBoxBuilding_D"
		}
	],
	"materials":[
		{
			"doubleSided":true,
			"name":"Material.004",
			"pbrMetallicRoughness":{
				"baseColorFactor":[
					0.11170002073049545,
					0.11370976269245148,
					0.14913472533226013,
					1
				],
				"metallicFactor":0,
				"roughnessFactor":0.5
			}
		}
	],
	"meshes":[
		{
			"name":"SkyBoxBuilding_D",
			"primitives":[
				{
					"attributes":{
						"POSITION":0,
						"NORMAL":1,
						"TEXCOORD_0":2
					},
					"indices":3,
					"material":0
				}
			]
		}
	],
	"accessors":[
		{
			"bufferView":0,
			"componentType":5126,
			"count":196,
			"max":[
				7.572901725769043,
				1,
				103.63508605957031
			],
			"min":[
				-7.572902679443359,
				-28.90760612487793,
				-82.65703582763672
			],
			"type":"VEC3"
		},
		{
			"bufferView":1,
			"componentType":5126,
			"count":196,
			"type":"VEC3"
		},
		{
			"bufferView":2,
			"componentType":5126,
			"count":196,
			"type":"VEC2"
		},
		{
			"bufferView":3,
			"componentType":5123,
			"count":372,
			"type":"SCALAR"
		}
	],
	"bufferViews":[
		{
			"buffer":0,
			"byteLength":2352,
			"byteOffset":0,
			"target":34962
		},
		{
			"buffer":0,
			"byteLength":2352,
			"byteOffset":2352,
			"target":34962
		},
		{
			"buffer":0,
			"byteLength":1568,
			"byteOffset":4704,
			"target":34962
		},
		{
			"buffer":0,
			"byteLength":744,
			"byteOffset":6272,
			"target":34963
		}
	],
	"buffers":[
		{
			"byteLength":7016,
			"uri":"skybox_element_d.bin"
		}
	]
}
