{
	"asset":{
		"generator":"Khronos glTF Blender I/O v4.3.47",
		"version":"2.0"
	},
	"scene":0,
	"scenes":[
		{
			"name":"Scene",
			"nodes":[
				0
			]
		}
	],
	"nodes":[
		{
			"mesh":0,
			"name":"Cube.008",
			"rotation":[
				-0.7071068286895752,
				0,
				-0.7071068286895752,
				0
			],
			"scale":[
				-2.2933454513549805,
				-2.2933454513549805,
				-2.2933454513549805
			]
		}
	],
	"materials":[
		{
			"doubleSided":true,
			"name":"Material.003",
			"pbrMetallicRoughness":{
				"baseColorFactor":[
					0.27017495036125183,
					0.17693527042865753,
					0.1594289243221283,
					1
				],
				"metallicFactor":0,
				"roughnessFactor":0.5
			}
		},
		{
			"doubleSided":true,
			"name":"Stone",
			"pbrMetallicRoughness":{
				"baseColorFactor":[
					0.4121226966381073,
					0.27233219146728516,
					0.21069273352622986,
					1
				],
				"metallicFactor":0,
				"roughnessFactor":0.5
			}
		},
		{
			"doubleSided":true,
			"name":"Material.002",
			"pbrMetallicRoughness":{
				"baseColorFactor":[
					0.3478142321109772,
					0.3478142321109772,
					0.3478142321109772,
					1
				],
				"metallicFactor":0,
				"roughnessFactor":0.5
			}
		},
		{
			"doubleSided":true,
			"name":"Material.004",
			"pbrMetallicRoughness":{
				"baseColorFactor":[
					0.11170002073049545,
					0.11370976269245148,
					0.14913472533226013,
					1
				],
				"metallicFactor":0,
				"roughnessFactor":0.5
			}
		},
		{
			"doubleSided":true,
			"name":"Material.005",
			"pbrMetallicRoughness":{
				"baseColorFactor":[
					0.025026028975844383,
					0.025026028975844383,
					0.025026028975844383,
					1
				],
				"metallicFactor":0,
				"roughnessFactor":0.5
			}
		}
	],
	"meshes":[
		{
			"name":"Cube.011",
			"primitives":[
				{
					"attributes":{
						"POSITION":0,
						"NORMAL":1,
						"TEXCOORD_0":2
					},
					"indices":3,
					"material":0
				},
				{
					"attributes":{
						"POSITION":4,
						"NORMAL":5,
						"TEXCOORD_0":6
					},
					"indices":7,
					"material":1
				},
				{
					"attributes":{
						"POSITION":8,
						"NORMAL":9,
						"TEXCOORD_0":10
					},
					"indices":11,
					"material":2
				},
				{
					"attributes":{
						"POSITION":12,
						"NORMAL":13,
						"TEXCOORD_0":14
					},
					"indices":15,
					"material":3
				},
				{
					"attributes":{
						"POSITION":16,
						"NORMAL":17,
						"TEXCOORD_0":18
					},
					"indices":19,
					"material":4
				}
			]
		}
	],
	"accessors":[
		{
			"bufferView":0,
			"componentType":5126,
			"count":682,
			"max":[
				0.5015414953231812,
				1.5168447494506836,
				1.1346722841262817
			],
			"min":[
				-1.1284332275390625,
				-1.6464591026306152,
				-0.5025055408477783
			],
			"type":"VEC3"
		},
		{
			"bufferView":1,
			"componentType":5126,
			"count":682,
			"type":"VEC3"
		},
		{
			"bufferView":2,
			"componentType":5126,
			"count":682,
			"type":"VEC2"
		},
		{
			"bufferView":3,
			"componentType":5123,
			"count":1032,
			"type":"SCALAR"
		},
		{
			"bufferView":4,
			"componentType":5126,
			"count":456,
			"max":[
				0.5015414953231812,
				1.5200244188308716,
				1.1346722841262817
			],
			"min":[
				-1.1284332275390625,
				-1.330128788948059,
				-0.5025055408477783
			],
			"type":"VEC3"
		},
		{
			"bufferView":5,
			"componentType":5126,
			"count":456,
			"type":"VEC3"
		},
		{
			"bufferView":6,
			"componentType":5126,
			"count":456,
			"type":"VEC2"
		},
		{
			"bufferView":7,
			"componentType":5123,
			"count":684,
			"type":"SCALAR"
		},
		{
			"bufferView":8,
			"componentType":5126,
			"count":240,
			"max":[
				0.6761490106582642,
				1.713053822517395,
				1.253509521484375
			],
			"min":[
				-1.2547643184661865,
				-1.7487068176269531,
				-0.6771130561828613
			],
			"type":"VEC3"
		},
		{
			"bufferView":9,
			"componentType":5126,
			"count":240,
			"type":"VEC3"
		},
		{
			"bufferView":10,
			"componentType":5126,
			"count":240,
			"type":"VEC2"
		},
		{
			"bufferView":11,
			"componentType":5123,
			"count":576,
			"type":"SCALAR"
		},
		{
			"bufferView":12,
			"componentType":5126,
			"count":552,
			"max":[
				0.4425975978374481,
				1.5168447494506836,
				0.9209184646606445
			],
			"min":[
				-0.9215644598007202,
				-1.6464591026306152,
				-0.44356170296669006
			],
			"type":"VEC3"
		},
		{
			"bufferView":13,
			"componentType":5126,
			"count":552,
			"type":"VEC3"
		},
		{
			"bufferView":14,
			"componentType":5126,
			"count":552,
			"type":"VEC2"
		},
		{
			"bufferView":15,
			"componentType":5123,
			"count":1284,
			"type":"SCALAR"
		},
		{
			"bufferView":16,
			"componentType":5126,
			"count":96,
			"max":[
				0.3649589717388153,
				1.471545696258545,
				0.8643002510070801
			],
			"min":[
				-0.8649464845657349,
				-1.6011601686477661,
				-0.36592307686805725
			],
			"type":"VEC3"
		},
		{
			"bufferView":17,
			"componentType":5126,
			"count":96,
			"type":"VEC3"
		},
		{
			"bufferView":18,
			"componentType":5126,
			"count":96,
			"type":"VEC2"
		},
		{
			"bufferView":19,
			"componentType":5123,
			"count":192,
			"type":"SCALAR"
		}
	],
	"bufferViews":[
		{
			"buffer":0,
			"byteLength":8184,
			"byteOffset":0,
			"target":34962
		},
		{
			"buffer":0,
			"byteLength":8184,
			"byteOffset":8184,
			"target":34962
		},
		{
			"buffer":0,
			"byteLength":5456,
			"byteOffset":16368,
			"target":34962
		},
		{
			"buffer":0,
			"byteLength":2064,
			"byteOffset":21824,
			"target":34963
		},
		{
			"buffer":0,
			"byteLength":5472,
			"byteOffset":23888,
			"target":34962
		},
		{
			"buffer":0,
			"byteLength":5472,
			"byteOffset":29360,
			"target":34962
		},
		{
			"buffer":0,
			"byteLength":3648,
			"byteOffset":34832,
			"target":34962
		},
		{
			"buffer":0,
			"byteLength":1368,
			"byteOffset":38480,
			"target":34963
		},
		{
			"buffer":0,
			"byteLength":2880,
			"byteOffset":39848,
			"target":34962
		},
		{
			"buffer":0,
			"byteLength":2880,
			"byteOffset":42728,
			"target":34962
		},
		{
			"buffer":0,
			"byteLength":1920,
			"byteOffset":45608,
			"target":34962
		},
		{
			"buffer":0,
			"byteLength":1152,
			"byteOffset":47528,
			"target":34963
		},
		{
			"buffer":0,
			"byteLength":6624,
			"byteOffset":48680,
			"target":34962
		},
		{
			"buffer":0,
			"byteLength":6624,
			"byteOffset":55304,
			"target":34962
		},
		{
			"buffer":0,
			"byteLength":4416,
			"byteOffset":61928,
			"target":34962
		},
		{
			"buffer":0,
			"byteLength":2568,
			"byteOffset":66344,
			"target":34963
		},
		{
			"buffer":0,
			"byteLength":1152,
			"byteOffset":68912,
			"target":34962
		},
		{
			"buffer":0,
			"byteLength":1152,
			"byteOffset":70064,
			"target":34962
		},
		{
			"buffer":0,
			"byteLength":768,
			"byteOffset":71216,
			"target":34962
		},
		{
			"buffer":0,
			"byteLength":384,
			"byteOffset":71984,
			"target":34963
		}
	],
	"buffers":[
		{
			"byteLength":72368,
			"uri":"facade_d.bin"
		}
	]
}
