{
	"asset":{
		"generator":"Khronos glTF Blender I/O v4.3.47",
		"version":"2.0"
	},
	"scene":0,
	"scenes":[
		{
			"name":"Scene",
			"nodes":[
				0
			]
		}
	],
	"nodes":[
		{
			"mesh":0,
			"name":"Cube.001",
			"scale":[
				2.2933454513549805,
				2.2933454513549805,
				2.2933454513549805
			]
		}
	],
	"materials":[
		{
			"doubleSided":true,
			"name":"Stone",
			"pbrMetallicRoughness":{
				"baseColorFactor":[
					0.4121226966381073,
					0.27233219146728516,
					0.21069273352622986,
					1
				],
				"metallicFactor":0,
				"roughnessFactor":0.5
			}
		},
		{
			"doubleSided":true,
			"name":"Material.002",
			"pbrMetallicRoughness":{
				"baseColorFactor":[
					0.3478142321109772,
					0.3478142321109772,
					0.3478142321109772,
					1
				],
				"metallicFactor":0,
				"roughnessFactor":0.5
			}
		},
		{
			"doubleSided":true,
			"name":"Material.003",
			"pbrMetallicRoughness":{
				"baseColorFactor":[
					0.27017495036125183,
					0.17693527042865753,
					0.1594289243221283,
					1
				],
				"metallicFactor":0,
				"roughnessFactor":0.5
			}
		},
		{
			"doubleSided":true,
			"name":"Material.005",
			"pbrMetallicRoughness":{
				"baseColorFactor":[
					0.025026028975844383,
					0.025026028975844383,
					0.025026028975844383,
					1
				],
				"metallicFactor":0,
				"roughnessFactor":0.5
			}
		},
		{
			"doubleSided":true,
			"name":"Material.004",
			"pbrMetallicRoughness":{
				"baseColorFactor":[
					0.11170002073049545,
					0.11370976269245148,
					0.14913472533226013,
					1
				],
				"metallicFactor":0,
				"roughnessFactor":0.5
			}
		}
	],
	"meshes":[
		{
			"name":"Cube.006",
			"primitives":[
				{
					"attributes":{
						"POSITION":0,
						"NORMAL":1,
						"TEXCOORD_0":2
					},
					"indices":3,
					"material":0
				},
				{
					"attributes":{
						"POSITION":4,
						"NORMAL":5,
						"TEXCOORD_0":6
					},
					"indices":7,
					"material":1
				},
				{
					"attributes":{
						"POSITION":8,
						"NORMAL":9,
						"TEXCOORD_0":10
					},
					"indices":11,
					"material":2
				},
				{
					"attributes":{
						"POSITION":12,
						"NORMAL":13,
						"TEXCOORD_0":14
					},
					"indices":15,
					"material":3
				},
				{
					"attributes":{
						"POSITION":16,
						"NORMAL":17,
						"TEXCOORD_0":18
					},
					"indices":19,
					"material":4
				}
			]
		}
	],
	"accessors":[
		{
			"bufferView":0,
			"componentType":5126,
			"count":478,
			"max":[
				0.9202257394790649,
				0.8663837313652039,
				0.19086521863937378
			],
			"min":[
				-0.7652975916862488,
				-1.1336162090301514,
				-0.2729066014289856
			],
			"type":"VEC3"
		},
		{
			"bufferView":1,
			"componentType":5126,
			"count":478,
			"type":"VEC3"
		},
		{
			"bufferView":2,
			"componentType":5126,
			"count":478,
			"type":"VEC2"
		},
		{
			"bufferView":3,
			"componentType":5123,
			"count":792,
			"type":"SCALAR"
		},
		{
			"bufferView":4,
			"componentType":5126,
			"count":40,
			"max":[
				0.7449100017547607,
				-0.4481966495513916,
				-0.005590856075286865
			],
			"min":[
				-0.9064557552337646,
				-1.1336162090301514,
				-0.2729066014289856
			],
			"type":"VEC3"
		},
		{
			"bufferView":5,
			"componentType":5126,
			"count":40,
			"type":"VEC3"
		},
		{
			"bufferView":6,
			"componentType":5126,
			"count":40,
			"type":"VEC2"
		},
		{
			"bufferView":7,
			"componentType":5123,
			"count":60,
			"type":"SCALAR"
		},
		{
			"bufferView":8,
			"componentType":5126,
			"count":180,
			"max":[
				0.9202257394790649,
				0.734498143196106,
				0.009753406047821045
			],
			"min":[
				-0.7652975916862488,
				-0.657260537147522,
				-0.2729066014289856
			],
			"type":"VEC3"
		},
		{
			"bufferView":9,
			"componentType":5126,
			"count":180,
			"type":"VEC3"
		},
		{
			"bufferView":10,
			"componentType":5126,
			"count":180,
			"type":"VEC2"
		},
		{
			"bufferView":11,
			"componentType":5123,
			"count":270,
			"type":"SCALAR"
		},
		{
			"bufferView":12,
			"componentType":5126,
			"count":16,
			"max":[
				0.3522452712059021,
				0.40572643280029297,
				0.16738355159759521
			],
			"min":[
				-0.3373245596885681,
				-0.5514286160469055,
				0.16738355159759521
			],
			"type":"VEC3"
		},
		{
			"bufferView":13,
			"componentType":5126,
			"count":16,
			"type":"VEC3"
		},
		{
			"bufferView":14,
			"componentType":5126,
			"count":16,
			"type":"VEC2"
		},
		{
			"bufferView":15,
			"componentType":5123,
			"count":24,
			"type":"SCALAR"
		},
		{
			"bufferView":16,
			"componentType":5126,
			"count":136,
			"max":[
				0.3916979432106018,
				0.4631115198135376,
				0.16738355159759521
			],
			"min":[
				-0.3767772316932678,
				-0.6088137030601501,
				0.06744027137756348
			],
			"type":"VEC3"
		},
		{
			"bufferView":17,
			"componentType":5126,
			"count":136,
			"type":"VEC3"
		},
		{
			"bufferView":18,
			"componentType":5126,
			"count":136,
			"type":"VEC2"
		},
		{
			"bufferView":19,
			"componentType":5123,
			"count":252,
			"type":"SCALAR"
		}
	],
	"bufferViews":[
		{
			"buffer":0,
			"byteLength":5736,
			"byteOffset":0,
			"target":34962
		},
		{
			"buffer":0,
			"byteLength":5736,
			"byteOffset":5736,
			"target":34962
		},
		{
			"buffer":0,
			"byteLength":3824,
			"byteOffset":11472,
			"target":34962
		},
		{
			"buffer":0,
			"byteLength":1584,
			"byteOffset":15296,
			"target":34963
		},
		{
			"buffer":0,
			"byteLength":480,
			"byteOffset":16880,
			"target":34962
		},
		{
			"buffer":0,
			"byteLength":480,
			"byteOffset":17360,
			"target":34962
		},
		{
			"buffer":0,
			"byteLength":320,
			"byteOffset":17840,
			"target":34962
		},
		{
			"buffer":0,
			"byteLength":120,
			"byteOffset":18160,
			"target":34963
		},
		{
			"buffer":0,
			"byteLength":2160,
			"byteOffset":18280,
			"target":34962
		},
		{
			"buffer":0,
			"byteLength":2160,
			"byteOffset":20440,
			"target":34962
		},
		{
			"buffer":0,
			"byteLength":1440,
			"byteOffset":22600,
			"target":34962
		},
		{
			"buffer":0,
			"byteLength":540,
			"byteOffset":24040,
			"target":34963
		},
		{
			"buffer":0,
			"byteLength":192,
			"byteOffset":24580,
			"target":34962
		},
		{
			"buffer":0,
			"byteLength":192,
			"byteOffset":24772,
			"target":34962
		},
		{
			"buffer":0,
			"byteLength":128,
			"byteOffset":24964,
			"target":34962
		},
		{
			"buffer":0,
			"byteLength":48,
			"byteOffset":25092,
			"target":34963
		},
		{
			"buffer":0,
			"byteLength":1632,
			"byteOffset":25140,
			"target":34962
		},
		{
			"buffer":0,
			"byteLength":1632,
			"byteOffset":26772,
			"target":34962
		},
		{
			"buffer":0,
			"byteLength":1088,
			"byteOffset":28404,
			"target":34962
		},
		{
			"buffer":0,
			"byteLength":504,
			"byteOffset":29492,
			"target":34963
		}
	],
	"buffers":[
		{
			"byteLength":29996,
			"uri":"facade_a.bin"
		}
	]
}
