{
	"asset":{
		"generator":"Khronos glTF Blender I/O v4.3.47",
		"version":"2.0"
	},
	"scene":0,
	"scenes":[
		{
			"name":"Scene",
			"nodes":[
				0
			]
		}
	],
	"nodes":[
		{
			"mesh":0,
			"name":"Cube.006",
			"scale":[
				2.2933454513549805,
				2.2933454513549805,
				2.2933454513549805
			]
		}
	],
	"materials":[
		{
			"doubleSided":true,
			"name":"Stone",
			"pbrMetallicRoughness":{
				"baseColorFactor":[
					0.4121226966381073,
					0.27233219146728516,
					0.21069273352622986,
					1
				],
				"metallicFactor":0,
				"roughnessFactor":0.5
			}
		},
		{
			"doubleSided":true,
			"name":"Material.003",
			"pbrMetallicRoughness":{
				"baseColorFactor":[
					0.27017495036125183,
					0.17693527042865753,
					0.1594289243221283,
					1
				],
				"metallicFactor":0,
				"roughnessFactor":0.5
			}
		},
		{
			"doubleSided":true,
			"name":"Material.002",
			"pbrMetallicRoughness":{
				"baseColorFactor":[
					0.3478142321109772,
					0.3478142321109772,
					0.3478142321109772,
					1
				],
				"metallicFactor":0,
				"roughnessFactor":0.5
			}
		},
		{
			"doubleSided":true,
			"name":"Material.005",
			"pbrMetallicRoughness":{
				"baseColorFactor":[
					0.025026028975844383,
					0.025026028975844383,
					0.025026028975844383,
					1
				],
				"metallicFactor":0,
				"roughnessFactor":0.5
			}
		},
		{
			"doubleSided":true,
			"name":"Material.004",
			"pbrMetallicRoughness":{
				"baseColorFactor":[
					0.11170002073049545,
					0.11370976269245148,
					0.14913472533226013,
					1
				],
				"metallicFactor":0,
				"roughnessFactor":0.5
			}
		}
	],
	"meshes":[
		{
			"name":"Cube.009",
			"primitives":[
				{
					"attributes":{
						"POSITION":0,
						"NORMAL":1,
						"TEXCOORD_0":2
					},
					"indices":3,
					"material":0
				},
				{
					"attributes":{
						"POSITION":4,
						"NORMAL":5,
						"TEXCOORD_0":6
					},
					"indices":7,
					"material":1
				},
				{
					"attributes":{
						"POSITION":8,
						"NORMAL":9,
						"TEXCOORD_0":10
					},
					"indices":11,
					"material":2
				},
				{
					"attributes":{
						"POSITION":12,
						"NORMAL":13,
						"TEXCOORD_0":14
					},
					"indices":15,
					"material":3
				},
				{
					"attributes":{
						"POSITION":16,
						"NORMAL":17,
						"TEXCOORD_0":18
					},
					"indices":19,
					"material":4
				}
			]
		}
	],
	"accessors":[
		{
			"bufferView":0,
			"componentType":5126,
			"count":264,
			"max":[
				0.7664128541946411,
				1.5203020572662354,
				0.044912874698638916
			],
			"min":[
				-0.7664123177528381,
				-1.0103411674499512,
				-0.049400389194488525
			],
			"type":"VEC3"
		},
		{
			"bufferView":1,
			"componentType":5126,
			"count":264,
			"type":"VEC3"
		},
		{
			"bufferView":2,
			"componentType":5126,
			"count":264,
			"type":"VEC2"
		},
		{
			"bufferView":3,
			"componentType":5123,
			"count":396,
			"type":"SCALAR"
		},
		{
			"bufferView":4,
			"componentType":5126,
			"count":408,
			"max":[
				0.7664128541946411,
				1.2039721012115479,
				0.044912874698638916
			],
			"min":[
				-0.7664123177528381,
				-1.6430017948150635,
				-0.049400389194488525
			],
			"type":"VEC3"
		},
		{
			"bufferView":5,
			"componentType":5126,
			"count":408,
			"type":"VEC3"
		},
		{
			"bufferView":6,
			"componentType":5126,
			"count":408,
			"type":"VEC2"
		},
		{
			"bufferView":7,
			"componentType":5123,
			"count":612,
			"type":"SCALAR"
		},
		{
			"bufferView":8,
			"componentType":5126,
			"count":130,
			"max":[
				0.8935500383377075,
				1.7133314609527588,
				0.044912874698638916
			],
			"min":[
				-0.8935495018959045,
				-1.7452495098114014,
				-0.22400790452957153
			],
			"type":"VEC3"
		},
		{
			"bufferView":9,
			"componentType":5126,
			"count":130,
			"type":"VEC3"
		},
		{
			"bufferView":10,
			"componentType":5126,
			"count":130,
			"type":"VEC2"
		},
		{
			"bufferView":11,
			"componentType":5123,
			"count":312,
			"type":"SCALAR"
		},
		{
			"bufferView":12,
			"componentType":5126,
			"count":48,
			"max":[
				0.5020717978477478,
				1.4750030040740967,
				0.08718210458755493
			],
			"min":[
				-0.5020713210105896,
				-1.5977028608322144,
				0.08718210458755493
			],
			"type":"VEC3"
		},
		{
			"bufferView":13,
			"componentType":5126,
			"count":48,
			"type":"VEC3"
		},
		{
			"bufferView":14,
			"componentType":5126,
			"count":48,
			"type":"VEC2"
		},
		{
			"bufferView":15,
			"componentType":5123,
			"count":96,
			"type":"SCALAR"
		},
		{
			"bufferView":16,
			"componentType":5126,
			"count":279,
			"max":[
				0.5586898922920227,
				1.5203020572662354,
				0.08718210458755493
			],
			"min":[
				-0.5586894154548645,
				-1.6430017948150635,
				0.009543418884277344
			],
			"type":"VEC3"
		},
		{
			"bufferView":17,
			"componentType":5126,
			"count":279,
			"type":"VEC3"
		},
		{
			"bufferView":18,
			"componentType":5126,
			"count":279,
			"type":"VEC2"
		},
		{
			"bufferView":19,
			"componentType":5123,
			"count":648,
			"type":"SCALAR"
		}
	],
	"bufferViews":[
		{
			"buffer":0,
			"byteLength":3168,
			"byteOffset":0,
			"target":34962
		},
		{
			"buffer":0,
			"byteLength":3168,
			"byteOffset":3168,
			"target":34962
		},
		{
			"buffer":0,
			"byteLength":2112,
			"byteOffset":6336,
			"target":34962
		},
		{
			"buffer":0,
			"byteLength":792,
			"byteOffset":8448,
			"target":34963
		},
		{
			"buffer":0,
			"byteLength":4896,
			"byteOffset":9240,
			"target":34962
		},
		{
			"buffer":0,
			"byteLength":4896,
			"byteOffset":14136,
			"target":34962
		},
		{
			"buffer":0,
			"byteLength":3264,
			"byteOffset":19032,
			"target":34962
		},
		{
			"buffer":0,
			"byteLength":1224,
			"byteOffset":22296,
			"target":34963
		},
		{
			"buffer":0,
			"byteLength":1560,
			"byteOffset":23520,
			"target":34962
		},
		{
			"buffer":0,
			"byteLength":1560,
			"byteOffset":25080,
			"target":34962
		},
		{
			"buffer":0,
			"byteLength":1040,
			"byteOffset":26640,
			"target":34962
		},
		{
			"buffer":0,
			"byteLength":624,
			"byteOffset":27680,
			"target":34963
		},
		{
			"buffer":0,
			"byteLength":576,
			"byteOffset":28304,
			"target":34962
		},
		{
			"buffer":0,
			"byteLength":576,
			"byteOffset":28880,
			"target":34962
		},
		{
			"buffer":0,
			"byteLength":384,
			"byteOffset":29456,
			"target":34962
		},
		{
			"buffer":0,
			"byteLength":192,
			"byteOffset":29840,
			"target":34963
		},
		{
			"buffer":0,
			"byteLength":3348,
			"byteOffset":30032,
			"target":34962
		},
		{
			"buffer":0,
			"byteLength":3348,
			"byteOffset":33380,
			"target":34962
		},
		{
			"buffer":0,
			"byteLength":2232,
			"byteOffset":36728,
			"target":34962
		},
		{
			"buffer":0,
			"byteLength":1296,
			"byteOffset":38960,
			"target":34963
		}
	],
	"buffers":[
		{
			"byteLength":40256,
			"uri":"facade_c.bin"
		}
	]
}
