{
	"asset":{
		"generator":"Khronos glTF Blender I/O v4.3.47",
		"version":"2.0"
	},
	"scene":0,
	"scenes":[
		{
			"name":"Scene",
			"nodes":[
				0
			]
		}
	],
	"nodes":[
		{
			"mesh":0,
			"name":"Cube.005",
			"scale":[
				2.2933454513549805,
				2.2933454513549805,
				2.2933454513549805
			]
		}
	],
	"materials":[
		{
			"doubleSided":true,
			"name":"Stone",
			"pbrMetallicRoughness":{
				"baseColorFactor":[
					0.4121226966381073,
					0.27233219146728516,
					0.21069273352622986,
					1
				],
				"metallicFactor":0,
				"roughnessFactor":0.5
			}
		},
		{
			"doubleSided":true,
			"name":"Material.002",
			"pbrMetallicRoughness":{
				"baseColorFactor":[
					0.3478142321109772,
					0.3478142321109772,
					0.3478142321109772,
					1
				],
				"metallicFactor":0,
				"roughnessFactor":0.5
			}
		},
		{
			"doubleSided":true,
			"name":"Material.003",
			"pbrMetallicRoughness":{
				"baseColorFactor":[
					0.27017495036125183,
					0.17693527042865753,
					0.1594289243221283,
					1
				],
				"metallicFactor":0,
				"roughnessFactor":0.5
			}
		},
		{
			"doubleSided":true,
			"name":"Material.004",
			"pbrMetallicRoughness":{
				"baseColorFactor":[
					0.11170002073049545,
					0.11370976269245148,
					0.14913472533226013,
					1
				],
				"metallicFactor":0,
				"roughnessFactor":0.5
			}
		},
		{
			"doubleSided":true,
			"name":"Material.005",
			"pbrMetallicRoughness":{
				"baseColorFactor":[
					0.025026028975844383,
					0.025026028975844383,
					0.025026028975844383,
					1
				],
				"metallicFactor":0,
				"roughnessFactor":0.5
			}
		}
	],
	"meshes":[
		{
			"name":"Cube.014",
			"primitives":[
				{
					"attributes":{
						"POSITION":0,
						"NORMAL":1,
						"TEXCOORD_0":2
					},
					"indices":3,
					"material":0
				},
				{
					"attributes":{
						"POSITION":4,
						"NORMAL":5,
						"TEXCOORD_0":6
					},
					"indices":7,
					"material":1
				},
				{
					"attributes":{
						"POSITION":8,
						"NORMAL":9,
						"TEXCOORD_0":10
					},
					"indices":11,
					"material":2
				},
				{
					"attributes":{
						"POSITION":12,
						"NORMAL":13,
						"TEXCOORD_0":14
					},
					"indices":15,
					"material":3
				},
				{
					"attributes":{
						"POSITION":16,
						"NORMAL":17,
						"TEXCOORD_0":18
					},
					"indices":19,
					"material":4
				}
			]
		}
	],
	"accessors":[
		{
			"bufferView":0,
			"componentType":5126,
			"count":467,
			"max":[
				0.5341006517410278,
				0.8654870986938477,
				1.1057817935943604
			],
			"min":[
				-1.14940345287323,
				-1.134513020515442,
				-0.5318342447280884
			],
			"type":"VEC3"
		},
		{
			"bufferView":1,
			"componentType":5126,
			"count":467,
			"type":"VEC3"
		},
		{
			"bufferView":2,
			"componentType":5126,
			"count":467,
			"type":"VEC2"
		},
		{
			"bufferView":3,
			"componentType":5123,
			"count":1554,
			"type":"SCALAR"
		},
		{
			"bufferView":4,
			"componentType":5126,
			"count":43,
			"max":[
				0.6827083826065063,
				-0.449093222618103,
				1.244413137435913
			],
			"min":[
				-1.2708544731140137,
				-1.134513020515442,
				-0.6804418563842773
			],
			"type":"VEC3"
		},
		{
			"bufferView":5,
			"componentType":5126,
			"count":43,
			"type":"VEC3"
		},
		{
			"bufferView":6,
			"componentType":5126,
			"count":43,
			"type":"VEC2"
		},
		{
			"bufferView":7,
			"componentType":5123,
			"count":120,
			"type":"SCALAR"
		},
		{
			"bufferView":8,
			"componentType":5126,
			"count":146,
			"max":[
				0.5341006517410278,
				0.7336015105247498,
				1.1057817935943604
			],
			"min":[
				-1.0658777952194214,
				-0.4490935802459717,
				-0.5318342447280884
			],
			"type":"VEC3"
		},
		{
			"bufferView":9,
			"componentType":5126,
			"count":146,
			"type":"VEC3"
		},
		{
			"bufferView":10,
			"componentType":5126,
			"count":146,
			"type":"VEC2"
		},
		{
			"bufferView":11,
			"componentType":5123,
			"count":354,
			"type":"SCALAR"
		},
		{
			"bufferView":12,
			"componentType":5126,
			"count":100,
			"max":[
				0.34236156940460205,
				0.4622148871421814,
				0.7073553204536438
			],
			"min":[
				-0.7086504697799683,
				-0.6097105741500854,
				-0.34009504318237305
			],
			"type":"VEC3"
		},
		{
			"bufferView":13,
			"componentType":5126,
			"count":100,
			"type":"VEC3"
		},
		{
			"bufferView":14,
			"componentType":5126,
			"count":100,
			"type":"VEC2"
		},
		{
			"bufferView":15,
			"componentType":5123,
			"count":480,
			"type":"SCALAR"
		},
		{
			"bufferView":16,
			"componentType":5126,
			"count":32,
			"max":[
				0.24241840839385986,
				0.40482980012893677,
				0.6679025292396545
			],
			"min":[
				-0.6691979169845581,
				-0.5523254871368408,
				-0.2401517629623413
			],
			"type":"VEC3"
		},
		{
			"bufferView":17,
			"componentType":5126,
			"count":32,
			"type":"VEC3"
		},
		{
			"bufferView":18,
			"componentType":5126,
			"count":32,
			"type":"VEC2"
		},
		{
			"bufferView":19,
			"componentType":5123,
			"count":48,
			"type":"SCALAR"
		}
	],
	"bufferViews":[
		{
			"buffer":0,
			"byteLength":5604,
			"byteOffset":0,
			"target":34962
		},
		{
			"buffer":0,
			"byteLength":5604,
			"byteOffset":5604,
			"target":34962
		},
		{
			"buffer":0,
			"byteLength":3736,
			"byteOffset":11208,
			"target":34962
		},
		{
			"buffer":0,
			"byteLength":3108,
			"byteOffset":14944,
			"target":34963
		},
		{
			"buffer":0,
			"byteLength":516,
			"byteOffset":18052,
			"target":34962
		},
		{
			"buffer":0,
			"byteLength":516,
			"byteOffset":18568,
			"target":34962
		},
		{
			"buffer":0,
			"byteLength":344,
			"byteOffset":19084,
			"target":34962
		},
		{
			"buffer":0,
			"byteLength":240,
			"byteOffset":19428,
			"target":34963
		},
		{
			"buffer":0,
			"byteLength":1752,
			"byteOffset":19668,
			"target":34962
		},
		{
			"buffer":0,
			"byteLength":1752,
			"byteOffset":21420,
			"target":34962
		},
		{
			"buffer":0,
			"byteLength":1168,
			"byteOffset":23172,
			"target":34962
		},
		{
			"buffer":0,
			"byteLength":708,
			"byteOffset":24340,
			"target":34963
		},
		{
			"buffer":0,
			"byteLength":1200,
			"byteOffset":25048,
			"target":34962
		},
		{
			"buffer":0,
			"byteLength":1200,
			"byteOffset":26248,
			"target":34962
		},
		{
			"buffer":0,
			"byteLength":800,
			"byteOffset":27448,
			"target":34962
		},
		{
			"buffer":0,
			"byteLength":960,
			"byteOffset":28248,
			"target":34963
		},
		{
			"buffer":0,
			"byteLength":384,
			"byteOffset":29208,
			"target":34962
		},
		{
			"buffer":0,
			"byteLength":384,
			"byteOffset":29592,
			"target":34962
		},
		{
			"buffer":0,
			"byteLength":256,
			"byteOffset":29976,
			"target":34962
		},
		{
			"buffer":0,
			"byteLength":96,
			"byteOffset":30232,
			"target":34963
		}
	],
	"buffers":[
		{
			"byteLength":30328,
			"uri":"facade_b.bin"
		}
	]
}
